<svg width="137" height="64" viewBox="0 0 137 64" fill="none" xmlns="http://www.w3.org/2000/svg">
<g id="multicampus 1" clip-path="url(#clip0_145_347)">
<path id="Vector" d="M-0.00488281 48.7993H137.004" stroke="white" stroke-width="1.01079" stroke-miterlimit="10"/>
<path id="Vector_2" d="M6.17585 8.61865H6.56912L8.51225 13.8138H7.89541L7.39421 12.4226H5.35077L4.84957 13.8138H4.24805L6.17585 8.61865ZM7.20909 11.9353L6.68476 10.442C6.60246 10.2115 6.53949 10.0295 6.49574 9.89589C6.45198 9.76228 6.41484 9.64581 6.384 9.54607H6.36858C6.33775 9.64567 6.2992 9.76228 6.25294 9.89589C6.20669 10.0295 6.14231 10.2115 6.06021 10.442L5.52808 11.9353H7.20909Z" fill="white"/>
<path id="Vector_3" d="M13.9035 13.531C13.6618 13.662 13.4227 13.7549 13.1863 13.81C12.9498 13.8651 12.7159 13.8924 12.4846 13.8924C12.1041 13.8924 11.7648 13.8284 11.4668 13.7C11.1685 13.5717 10.9153 13.3922 10.7072 13.1616C10.4991 12.9311 10.3397 12.656 10.2292 12.3363C10.1185 12.0168 10.0635 11.6682 10.0635 11.291C10.0635 10.9137 10.1237 10.5601 10.2446 10.23C10.3653 9.89989 10.5363 9.61437 10.7573 9.3733C10.9783 9.13238 11.2444 8.94246 11.5554 8.80356C11.8663 8.66481 12.2095 8.59521 12.5849 8.59521C12.8572 8.59521 13.1026 8.62266 13.3212 8.67781C13.5396 8.73282 13.713 8.79699 13.8416 8.87029V9.42045C13.6616 9.321 13.474 9.2424 13.2787 9.18468C13.0833 9.12708 12.8546 9.09822 12.5924 9.09822C12.2995 9.09822 12.0345 9.15467 11.7982 9.26727C11.5617 9.38001 11.3599 9.53321 11.1928 9.72697C11.0256 9.92089 10.896 10.1488 10.8035 10.4108C10.711 10.6728 10.6647 10.9531 10.6647 11.2517C10.6647 11.5661 10.7083 11.8543 10.7958 12.1162C10.8831 12.3783 11.0079 12.6035 11.1697 12.7922C11.3316 12.9808 11.5283 13.1275 11.7596 13.2323C11.991 13.3372 12.2505 13.3895 12.5384 13.3895C12.7748 13.3895 12.992 13.3595 13.1899 13.2991C13.3878 13.239 13.5743 13.1617 13.749 13.0672L13.9035 13.531Z" fill="white"/>
<path id="Vector_4" d="M15.8604 8.63428H16.8936C17.1608 8.63428 17.3858 8.65785 17.5684 8.70502C17.7508 8.75217 17.909 8.82033 18.0426 8.90935C18.2481 9.04039 18.3986 9.20544 18.4937 9.4045C18.5888 9.60371 18.6364 9.81849 18.6364 10.049C18.6364 10.4105 18.5464 10.7027 18.3664 10.9254C18.1864 11.1482 17.9319 11.3119 17.603 11.4166V11.4324C17.6801 11.4744 17.7675 11.5647 17.8652 11.7035C17.9628 11.8424 18.0785 12.0271 18.2123 12.2575L19.1376 13.8136H18.4744L17.5876 12.3125C17.4693 12.1081 17.3613 11.9459 17.2637 11.8252C17.166 11.7047 17.0787 11.634 17.0016 11.613H16.4309V13.8136H15.8604V8.63428ZM16.909 11.1257C17.1814 11.1257 17.4153 11.0682 17.6107 10.9528C17.7444 10.8743 17.851 10.7629 17.9308 10.6188C18.0105 10.4748 18.0505 10.3033 18.0505 10.104C18.0505 9.9521 18.0246 9.81205 17.9733 9.68358C17.9219 9.55526 17.8396 9.44909 17.7266 9.36521C17.6443 9.2919 17.5376 9.23288 17.4065 9.1883C17.2754 9.14386 17.1122 9.12156 16.9169 9.12156H16.4311V11.1257H16.909Z" fill="white"/>
<path id="Vector_5" d="M21.0195 8.63428H23.4717L23.2865 9.13728H21.5901V10.9136H23.2634V11.4165H21.5901V13.3106H23.5179V13.8136H21.0195V8.63428Z" fill="white"/>
<path id="Vector_6" d="M25.6318 8.63428H26.8502C27.3024 8.63428 27.6984 8.69858 28.0377 8.8269C28.377 8.95537 28.6571 9.13343 28.8782 9.36135C29.0992 9.58927 29.265 9.8605 29.3756 10.1749C29.4861 10.4892 29.5415 10.8299 29.5415 11.1966C29.5415 11.5687 29.4861 11.9145 29.3756 12.234C29.265 12.5538 29.0981 12.8301 28.8744 13.0633C28.6507 13.2965 28.368 13.4798 28.0262 13.6135C27.6842 13.7471 27.2845 13.8138 26.8271 13.8138H25.6318V8.63428ZM26.8194 13.3106C27.2151 13.3106 27.5479 13.2534 27.8179 13.1385C28.0878 13.0236 28.3061 12.8697 28.4733 12.6765C28.6402 12.4832 28.7597 12.2575 28.832 11.9991C28.9039 11.7407 28.9399 11.4654 28.9399 11.1732C28.9399 10.8757 28.8974 10.6029 28.8125 10.3549C28.7277 10.107 28.5979 9.89293 28.4233 9.71288C28.2484 9.53283 28.0273 9.39193 27.7601 9.29018C27.4928 9.18844 27.1741 9.13743 26.8039 9.13743H26.2024V13.3108L26.8194 13.3106Z" fill="white"/>
<path id="Vector_7" d="M31.6221 8.63428H32.1928V13.8136H31.6221V8.63428Z" fill="white"/>
<path id="Vector_8" d="M35.4691 9.13728H34.0117V8.63428H37.6591L37.474 9.13728H36.0397V13.8215H35.4691V9.13728Z" fill="white"/>
<path id="Vector_9" d="M40.7441 8.61865H41.1374L43.0806 13.8138H42.4638L41.9625 12.4226H39.919L39.4178 13.8138H38.8164L40.7441 8.61865ZM41.7774 11.9353L41.2531 10.442C41.1708 10.2115 41.1078 10.0295 41.0641 9.89589C41.0203 9.76228 40.9832 9.64581 40.9524 9.54607H40.9369C40.9061 9.64567 40.8676 9.76228 40.8213 9.89589C40.7749 10.0295 40.7107 10.2115 40.6285 10.442L40.0964 11.9353H41.7774Z" fill="white"/>
<path id="Vector_10" d="M48.4708 13.531C48.2291 13.662 47.9901 13.7549 47.7537 13.81C47.5171 13.8651 47.2832 13.8924 47.052 13.8924C46.6714 13.8924 46.3322 13.8284 46.034 13.7C45.7359 13.5717 45.4827 13.3922 45.2746 13.1616C45.0664 12.9311 44.907 12.656 44.7966 12.3363C44.6859 12.0168 44.6309 11.6682 44.6309 11.291C44.6309 10.9137 44.6911 10.5601 44.812 10.23C44.9326 9.89989 45.1037 9.61437 45.3247 9.3733C45.5457 9.13238 45.8118 8.94246 46.1226 8.80356C46.4336 8.66481 46.7768 8.59521 47.1522 8.59521C47.4246 8.59521 47.67 8.62266 47.8886 8.67781C48.1069 8.73282 48.2804 8.79699 48.409 8.87029V9.42045C48.229 9.321 48.0413 9.2424 47.846 9.18468C47.6506 9.12708 47.4219 9.09822 47.1598 9.09822C46.8667 9.09822 46.6019 9.15467 46.3655 9.26727C46.1291 9.38001 45.9272 9.53321 45.7601 9.72697C45.593 9.92089 45.4634 10.1488 45.3707 10.4108C45.2782 10.6728 45.232 10.9531 45.232 11.2517C45.232 11.5661 45.2757 11.8543 45.363 12.1162C45.4504 12.3783 45.5752 12.6035 45.737 12.7922C45.899 12.9808 46.0956 13.1275 46.327 13.2323C46.5583 13.3372 46.8178 13.3895 47.1058 13.3895C47.3422 13.3895 47.5594 13.3595 47.7573 13.2991C47.9551 13.239 48.1416 13.1617 48.3163 13.0672L48.4708 13.531Z" fill="white"/>
<path id="Vector_11" d="M50.4287 8.63428H50.9993V13.8136H50.4287V8.63428Z" fill="white"/>
<path id="Vector_12" d="M55.5563 13.8922C55.2016 13.8922 54.8725 13.8292 54.5692 13.7035C54.2659 13.5778 54.0051 13.4008 53.7865 13.173C53.5679 12.9452 53.3957 12.6687 53.2699 12.3438C53.1438 12.019 53.0811 11.6549 53.0811 11.2513C53.0811 10.8583 53.1427 10.4995 53.2661 10.1746C53.3894 9.84978 53.5616 9.56941 53.7827 9.33362C54.0037 9.09784 54.2659 8.91593 54.5692 8.78746C54.8725 8.65914 55.2016 8.59483 55.5563 8.59483C55.916 8.59483 56.2476 8.66043 56.551 8.79132C56.8543 8.92236 57.1151 9.1057 57.3337 9.34149C57.5522 9.57726 57.7231 9.85764 57.8465 10.1824C57.9698 10.5074 58.0315 10.8636 58.0315 11.2513C58.0315 11.6549 57.9673 12.0203 57.8387 12.3478C57.7102 12.6754 57.5354 12.953 57.3144 13.1809C57.0933 13.4089 56.8311 13.5845 56.5279 13.7075C56.2245 13.8305 55.9006 13.8922 55.5563 13.8922ZM55.5563 13.3891C55.839 13.3891 56.0961 13.338 56.3273 13.2359C56.5587 13.1337 56.7555 12.9884 56.9173 12.7996C57.0792 12.6111 57.2052 12.3858 57.2952 12.1237C57.3851 11.8618 57.4302 11.571 57.4302 11.2513C57.4302 10.9475 57.389 10.6646 57.3068 10.4025C57.2245 10.1406 57.1037 9.91265 56.9444 9.71873C56.785 9.52496 56.5883 9.37292 56.3545 9.26289C56.1205 9.15285 55.8545 9.09784 55.5564 9.09784C55.2737 9.09784 55.0167 9.15028 54.7853 9.25503C54.554 9.35991 54.3573 9.50652 54.1954 9.69516C54.0334 9.88378 53.9073 10.1104 53.8175 10.3749C53.7275 10.6396 53.6825 10.9317 53.6825 11.2512C53.6825 11.5708 53.7275 11.8616 53.8175 12.1236C53.9073 12.3856 54.0334 12.6109 54.1954 12.7995C54.3573 12.9881 54.554 13.1336 54.7853 13.2358C55.0167 13.3379 55.2735 13.3891 55.5563 13.3891ZM55.7182 7.18799H56.3583L55.7028 8.34333H55.271L55.7182 7.18799Z" fill="white"/>
<path id="Vector_13" d="M63.831 13.8136L61.3943 10.5284C61.2401 10.3241 61.1038 10.1394 60.9857 9.97438C60.8674 9.80933 60.7645 9.66144 60.6772 9.5304H60.6618C60.672 9.66144 60.6784 9.79119 60.6811 9.91951C60.6836 10.048 60.6849 10.2143 60.6849 10.4187V13.8139H60.1143V8.63428H60.6618L63.0059 11.7938C63.1704 12.0138 63.313 12.2104 63.4339 12.3832C63.5547 12.5561 63.6589 12.708 63.7462 12.8391H63.7616C63.7512 12.7029 63.7462 12.568 63.7462 12.4343C63.7462 12.3005 63.7462 12.1316 63.7462 11.9273V8.63428H64.3091V13.8136H63.831Z" fill="white"/>
<path id="Vector_14" d="M69.375 8.63428H69.9454V13.8136H69.375V8.63428Z" fill="white"/>
<path id="Vector_15" d="M75.9901 13.8136L73.5534 10.5284C73.399 10.3241 73.2629 10.1394 73.1447 9.97438C73.0263 9.80933 72.9236 9.66144 72.8362 9.5304H72.8208C72.8311 9.66144 72.8375 9.79119 72.8402 9.91951C72.8428 10.048 72.8439 10.2143 72.8439 10.4187V13.8139H72.2734V8.63428H72.8208L75.1651 11.7938C75.3296 12.0138 75.4722 12.2104 75.593 12.3832C75.7138 12.5561 75.8179 12.708 75.9054 12.8391H75.9208C75.9105 12.7029 75.9054 12.568 75.9054 12.4343C75.9054 12.3005 75.9054 12.1316 75.9054 11.9273V8.63428H76.4685V13.8136H75.9901Z" fill="white"/>
<path id="Vector_16" d="M78.7897 13.043C78.9131 13.1269 79.0686 13.2054 79.2563 13.2787C79.4438 13.3522 79.656 13.3888 79.8924 13.3888C80.0311 13.3888 80.1623 13.3745 80.2857 13.3457C80.409 13.3169 80.517 13.2683 80.6096 13.2001C80.7022 13.1322 80.7765 13.0444 80.8333 12.937C80.8898 12.8296 80.9181 12.6999 80.9181 12.5479C80.9181 12.3435 80.8625 12.1706 80.7515 12.0292C80.6408 11.8876 80.5027 11.7631 80.3377 11.6557C80.1725 11.5484 79.9919 11.4448 79.7961 11.3453C79.6 11.2458 79.4193 11.1319 79.2543 11.0034C79.0893 10.875 78.9513 10.7243 78.8404 10.5514C78.7296 10.3785 78.674 10.1637 78.674 9.9069C78.674 9.72357 78.7074 9.55209 78.7744 9.39204C78.8414 9.23228 78.9391 9.09338 79.0679 8.97549C79.1965 8.8576 79.3534 8.76457 79.5387 8.69641C79.724 8.62838 79.935 8.59424 80.1718 8.59424C80.4033 8.59424 80.6156 8.6191 80.8086 8.66882C81.0017 8.7187 81.1573 8.77243 81.2757 8.82987V9.37218C81.1155 9.28573 80.9423 9.21813 80.7564 9.16969C80.5704 9.12139 80.3792 9.09709 80.1827 9.09709C80.0689 9.09709 79.9565 9.11025 79.8454 9.13639C79.7344 9.16254 79.6361 9.2057 79.5507 9.26586C79.4655 9.32602 79.3958 9.40448 79.3415 9.50122C79.2873 9.59796 79.2602 9.71699 79.2602 9.85818C79.2602 10.0517 79.3158 10.2154 79.4265 10.3488C79.5374 10.4821 79.6753 10.6024 79.8405 10.7097C80.0055 10.8168 80.1862 10.9202 80.3821 11.0195C80.578 11.119 80.7587 11.2354 80.9237 11.3688C81.0887 11.5022 81.2269 11.6591 81.3377 11.8397C81.4484 12.0203 81.5041 12.2438 81.5041 12.5104C81.5041 12.7249 81.4648 12.9185 81.3861 13.0912C81.3075 13.2637 81.1982 13.4089 81.0585 13.5266C80.9185 13.6442 80.7483 13.7347 80.5479 13.7973C80.3473 13.86 80.1263 13.8914 79.8848 13.8914C79.5916 13.8914 79.3334 13.8521 79.1097 13.7734C78.8862 13.6949 78.6999 13.6033 78.5508 13.4984L78.7897 13.043Z" fill="white"/>
<path id="Vector_17" d="M84.9204 9.13728H83.4629V8.63428H87.1104L86.9253 9.13728H85.4912V13.8215H84.9205L84.9204 9.13728Z" fill="white"/>
<path id="Vector_18" d="M88.7979 8.63428H89.3683V13.8136H88.7979V8.63428Z" fill="white"/>
<path id="Vector_19" d="M92.6462 9.13728H91.1885V8.63428H94.8358L94.6506 9.13728H93.2169V13.8215H92.6462V9.13728Z" fill="white"/>
<path id="Vector_20" d="M98.7604 13.8922C98.2928 13.8922 97.9103 13.7979 97.615 13.6092C97.3196 13.4206 97.1104 13.1455 96.9872 12.7839C96.9101 12.543 96.8711 12.2652 96.8711 11.9508V8.62646H97.4418V11.896C97.4418 12.1789 97.4748 12.42 97.5419 12.619C97.629 12.8655 97.7742 13.0552 97.9774 13.1889C98.1807 13.3224 98.442 13.3892 98.7604 13.3892C99.0847 13.3892 99.3461 13.3224 99.5473 13.1889C99.7475 13.0552 99.8907 12.8653 99.9788 12.619C100.02 12.5143 100.047 12.4017 100.06 12.2811C100.072 12.1606 100.079 12.0245 100.079 11.8725V8.62646H100.65V11.951C100.65 12.2864 100.606 12.5693 100.518 12.7998C100.395 13.1562 100.184 13.4274 99.8857 13.6134C99.5883 13.7993 99.2129 13.8922 98.7604 13.8922Z" fill="white"/>
<path id="Vector_21" d="M106.534 13.531C106.293 13.662 106.053 13.7549 105.817 13.81C105.581 13.8651 105.347 13.8924 105.115 13.8924C104.735 13.8924 104.395 13.8284 104.098 13.7C103.8 13.5717 103.546 13.3922 103.338 13.1616C103.13 12.9311 102.971 12.656 102.86 12.3363C102.749 12.0168 102.694 11.6682 102.694 11.291C102.694 10.9137 102.754 10.5601 102.876 10.23C102.996 9.89989 103.167 9.61437 103.388 9.3733C103.609 9.13238 103.875 8.94246 104.186 8.80356C104.497 8.66481 104.84 8.59521 105.215 8.59521C105.488 8.59521 105.733 8.62266 105.952 8.67781C106.17 8.73282 106.344 8.79699 106.473 8.87029V9.42045C106.293 9.321 106.105 9.2424 105.909 9.18468C105.714 9.12708 105.486 9.09822 105.223 9.09822C104.93 9.09822 104.666 9.15467 104.429 9.26727C104.192 9.38001 103.991 9.53321 103.824 9.72697C103.656 9.92089 103.527 10.1488 103.434 10.4108C103.342 10.6728 103.296 10.9531 103.296 11.2517C103.296 11.5661 103.339 11.8543 103.427 12.1162C103.514 12.3783 103.638 12.6035 103.801 12.7922C103.963 12.9808 104.159 13.1275 104.39 13.2323C104.622 13.3372 104.882 13.3895 105.169 13.3895C105.406 13.3895 105.623 13.3595 105.821 13.2991C106.019 13.239 106.206 13.1617 106.38 13.0672L106.534 13.531Z" fill="white"/>
<path id="Vector_22" d="M108.485 8.63428H109.056V13.8136H108.485V8.63428Z" fill="white"/>
<path id="Vector_23" d="M113.613 13.8924C113.257 13.8924 112.929 13.8296 112.625 13.7039C112.322 13.5781 112.061 13.4012 111.843 13.1734C111.624 12.9455 111.452 12.6691 111.326 12.3442C111.2 12.0194 111.137 11.6553 111.137 11.2517C111.137 10.8587 111.199 10.4999 111.322 10.175C111.445 9.85015 111.617 9.56979 111.839 9.334C112.06 9.09822 112.322 8.9163 112.625 8.78784C112.929 8.65952 113.257 8.59521 113.612 8.59521C113.972 8.59521 114.304 8.6608 114.607 8.79171C114.91 8.92274 115.171 9.10608 115.39 9.34186C115.608 9.57765 115.779 9.85802 115.902 10.1828C116.026 10.5078 116.088 10.864 116.088 11.2517C116.088 11.6553 116.023 12.0206 115.894 12.3482C115.766 12.6757 115.591 12.9533 115.37 13.1813C115.15 13.4092 114.887 13.5848 114.584 13.7078C114.28 13.8309 113.957 13.8924 113.613 13.8924ZM113.613 13.3895C113.895 13.3895 114.152 13.3384 114.384 13.2363C114.615 13.1341 114.811 12.9888 114.973 12.8C115.136 12.6114 115.262 12.3861 115.351 12.1241C115.441 11.8621 115.486 11.5714 115.486 11.2517C115.486 10.9479 115.445 10.6649 115.363 10.4029C115.281 10.141 115.16 9.91303 115 9.71911C114.841 9.52535 114.644 9.3733 114.411 9.26327C114.176 9.15324 113.91 9.09822 113.613 9.09822C113.329 9.09822 113.072 9.15066 112.841 9.25541C112.609 9.3603 112.413 9.50691 112.251 9.69554C112.09 9.88416 111.964 10.1108 111.874 10.3753C111.783 10.6399 111.738 10.9321 111.738 11.2516C111.738 11.5712 111.783 11.862 111.874 12.124C111.964 12.386 112.09 12.6113 112.251 12.7998C112.413 12.9885 112.609 13.1339 112.841 13.2362C113.072 13.3383 113.329 13.3895 113.613 13.3895Z" fill="white"/>
<path id="Vector_24" d="M121.886 13.8136L119.45 10.5284C119.296 10.3241 119.16 10.1394 119.041 9.97438C118.923 9.80933 118.821 9.66144 118.733 9.5304H118.718C118.728 9.66144 118.735 9.79119 118.737 9.91951C118.74 10.048 118.741 10.2143 118.741 10.4187V13.8139H118.17V8.63428H118.718L121.062 11.7938C121.227 12.0138 121.369 12.2104 121.49 12.3832C121.61 12.5561 121.715 12.708 121.802 12.8391H121.817C121.807 12.7029 121.802 12.568 121.802 12.4343C121.802 12.3005 121.802 12.1316 121.802 11.9273V8.63428H122.365V13.8136H121.886Z" fill="white"/>
<path id="Vector_25" d="M126.089 8.61865H126.483L128.426 13.8138H127.809L127.308 12.4226H125.264L124.763 13.8138H124.162L126.089 8.61865ZM127.123 11.9353L126.598 10.442C126.516 10.2115 126.453 10.0295 126.41 9.89589C126.366 9.76228 126.329 9.64581 126.298 9.54607H126.283C126.252 9.64567 126.213 9.76228 126.167 9.89589C126.12 10.0295 126.056 10.2115 125.974 10.442L125.442 11.9353H127.123Z" fill="white"/>
<path id="Vector_26" d="M130.222 8.62646H130.792V13.3107H132.682V13.8137H130.222V8.62646Z" fill="white"/>
<path id="Vector_27" d="M1.2627 16.5181H5.33357C6.32565 16.5181 7.20921 16.6488 7.98474 16.9103C8.76006 17.1719 9.41565 17.5467 9.95179 18.0348C10.4876 18.523 10.8981 19.1157 11.1834 19.813C11.4682 20.5104 11.611 21.295 11.611 22.1666C11.611 23.0731 11.4485 23.8868 11.1235 24.6073C10.7985 25.3281 10.3452 25.941 9.76367 26.4466C9.18207 26.9521 8.49204 27.3387 7.69399 27.6059C6.89574 27.8734 6.01778 28.0069 5.05994 28.0069H1.2627V16.5181ZM5.12832 25.758C5.7783 25.758 6.33687 25.6651 6.80452 25.479C7.27198 25.2932 7.65684 25.0374 7.95911 24.7119C8.26107 24.3867 8.48083 24.0146 8.61759 23.5962C8.75446 23.1777 8.82294 22.7305 8.82294 22.2538C8.82294 21.1266 8.50356 20.2636 7.86499 19.6649C7.22633 19.0664 6.29702 18.7671 5.07696 18.7671H3.87973V25.758H5.12832Z" fill="white"/>
<path id="Vector_28" d="M14.2617 16.5181H21.0351L20.368 18.7671H16.8786V21.0857H20.4193V23.3347H16.8786V25.758H21.0009V28.0069H14.2617V16.5181Z" fill="white"/>
<path id="Vector_29" d="M29.3822 16.4653H31.5374L36.2069 28.0065H33.4019L32.3243 25.2694H28.6639L27.6376 28.0065H24.9521L29.3822 16.4653ZM31.5374 23.1424L31.0072 21.556C30.8815 21.161 30.7819 20.8355 30.7078 20.5796C30.6335 20.3242 30.5737 20.1033 30.5282 19.9172H30.4941C30.4483 20.115 30.3855 20.3417 30.3059 20.5971C30.226 20.8529 30.1118 21.1785 29.9638 21.5734L29.3994 23.1424H31.5374Z" fill="white"/>
<path id="Vector_30" d="M37.1992 16.5181H39.8161V25.758H43.6818V28.0069H37.1992V16.5181Z" fill="white"/>
<path id="Vector_31" d="M47.0677 18.7671H43.7666V16.5181H53.2425L52.5754 18.7671H49.6848V28.0069H47.0677V18.7671Z" fill="white"/>
<path id="Vector_32" d="M57.3822 16.4653H59.5374L64.2069 28.0065H61.4018L60.3242 25.2694H56.6638L55.6376 28.0065H52.9521L57.3822 16.4653ZM59.5375 23.1424L59.0073 21.556C58.8816 21.161 58.782 20.8355 58.7079 20.5796C58.6336 20.3242 58.5738 20.1033 58.5283 19.9172H58.4942C58.4484 20.115 58.3856 20.3417 58.3059 20.5971C58.2261 20.8529 58.1119 21.1785 57.9639 21.5734L57.3995 23.1424H59.5375Z" fill="white"/>
<path id="Vector_33" d="M77.8378 27.2049C77.1421 27.5885 76.4721 27.8472 75.828 27.9807C75.1837 28.1142 74.5594 28.1811 73.9551 28.1811C72.9744 28.1811 72.1165 28.0357 71.381 27.7453C70.6455 27.455 70.0298 27.0539 69.5337 26.5424C69.0377 26.0311 68.6641 25.4179 68.4134 24.7032C68.1624 23.9884 68.0371 23.2126 68.0371 22.3757C68.0371 21.5507 68.1825 20.7748 68.4732 20.0483C68.764 19.3222 69.1772 18.6885 69.7133 18.148C70.2491 17.6076 70.8991 17.1805 71.6632 16.8667C72.4271 16.5528 73.2882 16.396 74.246 16.396C74.8846 16.396 75.4576 16.4456 75.9652 16.5442C76.4723 16.6431 76.9256 16.7738 77.3248 16.9364V19.3772C76.3782 18.8658 75.3751 18.6101 74.3144 18.6101C73.7099 18.6101 73.1882 18.7119 72.7493 18.9151C72.3102 19.1186 71.9481 19.3919 71.6632 19.7345C71.378 20.0775 71.1672 20.4755 71.0304 20.9287C70.8934 21.382 70.8251 21.8527 70.8251 22.3409C70.8251 22.8756 70.9046 23.3668 71.0645 23.8141C71.2241 24.2615 71.455 24.6451 71.7572 24.9646C72.0591 25.2844 72.4213 25.5312 72.8433 25.7056C73.2651 25.8799 73.7439 25.967 74.2801 25.967C74.873 25.967 75.3889 25.8887 75.828 25.7317C76.2669 25.5749 76.6975 25.3686 77.1195 25.1128L77.8378 27.2049Z" fill="white"/>
<path id="Vector_34" d="M82.4914 16.4653H84.6466L89.3162 28.0065H86.511L85.4334 25.2694H81.7731L80.7469 28.0065H78.0615L82.4914 16.4653ZM84.6466 23.1424L84.1164 21.556C83.9907 21.161 83.8912 20.8355 83.817 20.5796C83.7427 20.3242 83.6828 20.1033 83.6375 19.9172H83.6033C83.5577 20.115 83.4948 20.3417 83.4151 20.5971C83.3353 20.8529 83.2211 21.1785 83.0731 21.5734L82.5087 23.1424H84.6466Z" fill="white"/>
<path id="Vector_35" d="M90.3086 16.5181H92.9257V25.758H96.7903V28.0069H90.3086V16.5181Z" fill="white"/>
<path id="Vector_36" d="M97.9873 16.5181H100.604V28.0069H97.9873V16.5181Z" fill="white"/>
<path id="Vector_37" d="M102.827 16.5181H106.898C107.89 16.5181 108.774 16.6488 109.549 16.9103C110.325 17.1719 110.981 17.5467 111.517 18.0348C112.052 18.523 112.463 19.1157 112.748 19.813C113.033 20.5104 113.176 21.295 113.176 22.1666C113.176 23.0731 113.013 23.8868 112.688 24.6073C112.364 25.3281 111.91 25.941 111.328 26.4466C110.747 26.9521 110.057 27.3387 109.259 27.6059C108.461 27.8734 107.583 28.0069 106.625 28.0069H102.827V16.5181ZM106.693 25.758C107.344 25.758 107.901 25.6651 108.37 25.479C108.836 25.2932 109.222 25.0374 109.524 24.7119C109.826 24.3867 110.046 24.0146 110.182 23.5962C110.319 23.1777 110.388 22.7305 110.388 22.2538C110.388 21.1266 110.069 20.2636 109.43 19.6649C108.791 19.0664 107.862 18.7671 106.642 18.7671H105.444V25.758H106.693Z" fill="white"/>
<path id="Vector_38" d="M118.153 16.4653H120.308L124.977 28.0065H122.173L121.094 25.2694H117.434L116.408 28.0065H113.723L118.153 16.4653ZM120.308 23.1424L119.778 21.556C119.652 21.161 119.553 20.8355 119.479 20.5796C119.404 20.3242 119.344 20.1033 119.298 19.9172H119.264C119.219 20.115 119.156 20.3417 119.076 20.5971C118.997 20.8529 118.883 21.1785 118.735 21.5734L118.17 23.1424H120.308Z" fill="white"/>
<path id="Vector_39" d="M125.97 16.5181H130.041C131.033 16.5181 131.916 16.6488 132.692 16.9103C133.467 17.1719 134.122 17.5467 134.659 18.0348C135.195 18.523 135.605 19.1157 135.891 19.813C136.175 20.5104 136.318 21.295 136.318 22.1666C136.318 23.0731 136.155 23.8868 135.831 24.6073C135.505 25.3281 135.052 25.941 134.471 26.4466C133.889 26.9521 133.199 27.3387 132.4 27.6059C131.602 27.8734 130.724 28.0069 129.767 28.0069H125.97V16.5181ZM129.835 25.758C130.485 25.758 131.044 25.6651 131.511 25.479C131.979 25.2932 132.364 25.0374 132.666 24.7119C132.968 24.3867 133.187 24.0146 133.325 23.5962C133.462 23.1777 133.53 22.7305 133.53 22.2538C133.53 21.1266 133.21 20.2636 132.572 19.6649C131.933 19.0664 131.004 18.7671 129.784 18.7671H128.587V25.758H129.835Z" fill="white"/>
<path id="Vector_40" d="M0.598633 30.7329H2.14648L6.27402 37.0662C6.588 37.5542 6.84951 37.9619 7.05916 38.2896C7.26841 38.6175 7.46294 38.9336 7.64236 39.2384H7.68721C7.86663 38.9336 8.06476 38.6022 8.28162 38.2438C8.49828 37.8859 8.75629 37.4629 9.05555 36.9749L12.9364 30.733H14.4841V45.8004H12.8242V36.1289C12.8242 35.7328 12.8242 35.3057 12.8242 34.8485C12.8242 34.3913 12.8389 33.9646 12.869 33.5682H12.8242C12.6595 33.8733 12.48 34.1968 12.2858 34.5399C12.0912 34.8827 11.9192 35.1685 11.7699 35.3973L8.11342 41.3419H7.23858L3.26813 35.2831C3.10333 35.0544 2.92782 34.7915 2.7409 34.4941C2.55377 34.197 2.39318 33.9036 2.25862 33.6139H2.21377C2.2436 33.9647 2.25862 34.3763 2.25862 34.8486C2.25862 35.3214 2.25862 35.7402 2.25862 36.1062V45.8005H0.598633V30.7329Z" fill="white"/>
<path id="Vector_41" d="M23.7254 46.0293C22.3643 46.0293 21.2541 45.7549 20.3942 45.2062C19.5341 44.6574 18.9249 43.8573 18.566 42.8054C18.3416 42.1046 18.2295 41.2964 18.2295 40.3819V30.7104H19.8895V40.2218C19.8895 41.0449 19.9867 41.7463 20.1811 42.3253C20.4353 43.0421 20.8575 43.5942 21.4485 43.983C22.039 44.3717 22.798 44.5661 23.7254 44.5661C24.6676 44.5661 25.4302 44.3717 26.0135 43.983C26.5967 43.5942 27.0152 43.0421 27.2697 42.3253C27.3892 42.0207 27.4677 41.693 27.5052 41.3422C27.5423 40.9917 27.5613 40.5955 27.5613 40.1533V30.7104H29.2212V40.3819C29.2212 41.3575 29.0941 42.1807 28.84 42.8511C28.4811 43.8879 27.8676 44.6765 27.0005 45.2176C26.133 45.7588 25.0411 46.0293 23.7254 46.0293Z" fill="white"/>
<path id="Vector_42" d="M32.9678 30.7104H34.6278V44.3373H40.1236V45.8006H32.9678V30.7104Z" fill="white"/>
<path id="Vector_43" d="M45.3276 32.1962H41.0879V30.7329H51.6983L51.1599 32.1962H46.9875V45.823H45.3276V32.1962Z" fill="white"/>
<path id="Vector_44" d="M53.6943 30.7329H55.3543V45.8002H53.6943V30.7329Z" fill="white"/>
<path id="Vector_45" d="M69.6663 44.9772C68.9632 45.3583 68.2678 45.6288 67.5801 45.7889C66.8922 45.9489 66.2117 46.0289 65.5387 46.0289C64.4319 46.0289 63.4448 45.8421 62.5777 45.4688C61.7102 45.0955 60.9739 44.5735 60.3682 43.9026C59.7625 43.2321 59.2989 42.4319 58.9774 41.5019C58.6556 40.5724 58.4951 39.5584 58.4951 38.461C58.4951 37.3635 58.6706 36.3347 59.0222 35.3743C59.3735 34.4141 59.8709 33.5835 60.5139 32.8822C61.1568 32.1813 61.9307 31.6287 62.8357 31.2246C63.7404 30.8209 64.7385 30.6187 65.8304 30.6187C66.6228 30.6187 67.3369 30.6987 67.9727 30.8588C68.6082 31.0188 69.1128 31.2057 69.4867 31.4189V33.0194C68.9632 32.7302 68.4174 32.5014 67.8492 32.3334C67.2806 32.166 66.6154 32.082 65.8527 32.082C65.0003 32.082 64.2299 32.2459 63.5422 32.5736C62.854 32.9015 62.267 33.3475 61.7812 33.9111C61.2951 34.4751 60.9176 35.1383 60.6484 35.9003C60.3793 36.6626 60.2446 37.4778 60.2446 38.3466C60.2446 39.2613 60.3716 40.0998 60.626 40.8619C60.8802 41.6242 61.2429 42.2794 61.714 42.8281C62.185 43.3769 62.757 43.8037 63.43 44.1085C64.103 44.4136 64.8579 44.5658 65.6956 44.5658C66.3834 44.5658 67.0154 44.4782 67.5912 44.3027C68.1667 44.1277 68.709 43.9026 69.2175 43.6283L69.6663 44.9772Z" fill="white"/>
<path id="Vector_46" d="M76.5073 30.688H77.6514L83.3043 45.801H81.5097L80.0516 41.7541H74.1071L72.6491 45.801H70.8994L76.5073 30.688ZM79.5134 40.3364L77.988 35.9924C77.7485 35.3219 77.5652 34.792 77.4384 34.4033C77.3111 34.0145 77.2028 33.6755 77.1131 33.3859H77.0683C76.9786 33.6755 76.8666 34.0145 76.7319 34.4033C76.5973 34.792 76.4102 35.3219 76.1711 35.9924L74.6233 40.3364H79.5134Z" fill="white"/>
<path id="Vector_47" d="M85.6152 30.7329H87.1631L91.2908 37.0662C91.6042 37.5542 91.8655 37.9619 92.0758 38.2896C92.285 38.6175 92.4792 38.9336 92.6585 39.2384H92.7035C92.8827 38.9336 93.081 38.6022 93.2982 38.2438C93.5145 37.8859 93.7728 37.4629 94.0722 36.9749L97.9528 30.733H99.5006V45.8004H97.8407V36.1289C97.8407 35.7328 97.8407 35.3057 97.8407 34.8485C97.8407 34.3913 97.8557 33.9646 97.8857 33.5682H97.8407C97.6765 33.8733 97.4962 34.1968 97.302 34.5399C97.1078 34.8827 96.9356 35.1685 96.7864 35.3973L93.13 41.3419H92.255L88.2847 35.2831C88.1199 35.0544 87.9442 34.7915 87.7575 34.4941C87.5704 34.197 87.4098 33.9036 87.2752 33.6139H87.2305C87.2602 33.9647 87.2752 34.3763 87.2752 34.8486C87.2752 35.3214 87.2752 35.7402 87.2752 36.1062V45.8005H85.6152V30.7329Z" fill="white"/>
<path id="Vector_48" d="M103.358 30.7329H106.141C106.859 30.7329 107.475 30.7901 107.991 30.9043C108.508 31.0187 108.959 31.1902 109.349 31.4189C110.021 31.8154 110.545 32.3527 110.918 33.0307C111.292 33.7092 111.479 34.5283 111.479 35.4886C111.479 36.3728 111.285 37.1886 110.896 37.935C110.507 38.6821 109.879 39.2611 109.012 39.6727C108.638 39.8406 108.208 39.9778 107.722 40.0842C107.236 40.191 106.656 40.2443 105.984 40.2443H105.019V45.8002H103.359L103.358 30.7329ZM106.118 38.8267C106.596 38.8267 107.012 38.7849 107.363 38.701C107.715 38.6173 108.017 38.5066 108.271 38.3695C109.273 37.8362 109.774 36.8759 109.774 35.4886C109.774 34.8485 109.655 34.2846 109.416 33.7967C109.176 33.3091 108.825 32.9278 108.361 32.6535C108.107 32.486 107.801 32.3601 107.441 32.2763C107.083 32.1926 106.648 32.1504 106.14 32.1504H105.018V38.8267H106.118Z" fill="white"/>
<path id="Vector_49" d="M120.002 46.0293C118.642 46.0293 117.531 45.7549 116.671 45.2062C115.811 44.6574 115.203 43.8573 114.843 42.8054C114.619 42.1046 114.507 41.2964 114.507 40.3819V30.7104H116.167V40.2218C116.167 41.0449 116.264 41.7463 116.458 42.3253C116.712 43.0421 117.135 43.5942 117.726 43.983C118.316 44.3717 119.075 44.5661 120.002 44.5661C120.945 44.5661 121.707 44.3717 122.291 43.983C122.874 43.5942 123.292 43.0421 123.547 42.3253C123.667 42.0207 123.745 41.693 123.783 41.3422C123.82 40.9917 123.839 40.5955 123.839 40.1533V30.7104H125.499V40.3819C125.499 41.3575 125.372 42.1807 125.118 42.8511C124.758 43.8879 124.145 44.6765 123.277 45.2176C122.41 45.7588 121.319 46.0293 120.002 46.0293Z" fill="white"/>
<path id="Vector_50" d="M129.222 43.5597C129.582 43.8036 130.033 44.0324 130.58 44.2455C131.125 44.4592 131.742 44.5657 132.43 44.5657C132.834 44.5657 133.215 44.5238 133.574 44.4399C133.933 44.3561 134.247 44.2151 134.517 44.0167C134.786 43.8189 135.002 43.5634 135.167 43.251C135.331 42.9386 135.414 42.5615 135.414 42.1192C135.414 41.5248 135.252 41.0216 134.93 40.61C134.608 40.1985 134.205 39.8367 133.726 39.524C133.245 39.2117 132.719 38.9105 132.15 38.6209C131.579 38.3316 131.054 38 130.574 37.6263C130.094 37.2531 129.692 36.8146 129.369 36.3116C129.047 35.8086 128.886 35.1837 128.886 34.4369C128.886 33.9035 128.983 33.4043 129.178 32.9394C129.372 32.4747 129.657 32.0706 130.031 31.7276C130.406 31.3846 130.862 31.1143 131.401 30.9159C131.94 30.718 132.554 30.6187 133.243 30.6187C133.917 30.6187 134.535 30.6913 135.095 30.8359C135.657 30.9809 136.109 31.1371 136.455 31.3046V32.8822C135.988 32.6304 135.485 32.434 134.943 32.2931C134.402 32.1524 133.846 32.082 133.275 32.082C132.944 32.082 132.616 32.1203 132.294 32.1963C131.97 32.2724 131.684 32.3977 131.437 32.5728C131.189 32.7479 130.985 32.9762 130.827 33.2576C130.67 33.539 130.591 33.8854 130.591 34.2962C130.591 34.8591 130.752 35.335 131.074 35.723C131.397 36.111 131.798 36.461 132.279 36.773C132.759 37.0848 133.284 37.3853 133.855 37.6743C134.424 37.9638 134.95 38.3025 135.431 38.6903C135.91 39.0783 136.312 39.5349 136.635 40.06C136.957 40.5852 137.119 41.2354 137.119 42.0113C137.119 42.6353 137.004 43.1985 136.775 43.7007C136.547 44.203 136.229 44.6252 135.822 44.9675C135.416 45.31 134.92 45.5725 134.337 45.7551C133.754 45.9374 133.111 46.0288 132.408 46.0288C131.555 46.0288 130.804 45.9145 130.153 45.686C129.503 45.4572 128.961 45.1908 128.527 44.8856L129.222 43.5597Z" fill="white"/>
<path id="Vector_51" d="M4.42969 51.3237H5.18119C5.37552 51.3237 5.53912 51.3409 5.67187 51.3752C5.80453 51.4094 5.91957 51.459 6.01679 51.5237C6.16627 51.6191 6.2757 51.7392 6.34488 51.8839C6.41396 52.0289 6.4486 52.185 6.4486 52.3526C6.4486 52.6155 6.38312 52.828 6.25227 52.9899C6.12131 53.152 5.93629 53.271 5.6971 53.3472V53.3586C5.75317 53.3891 5.81665 53.4549 5.88773 53.5558C5.95872 53.6568 6.04282 53.7911 6.14013 53.9588L6.81314 55.0906H6.33086L5.68589 53.9988C5.59979 53.8502 5.52129 53.7321 5.45031 53.6444C5.37922 53.5568 5.31575 53.5054 5.25968 53.4901H4.84468V55.0906H4.42969V51.3237ZM5.1924 53.1358C5.39044 53.1358 5.56054 53.0939 5.70271 53.01C5.79983 52.9529 5.87742 52.8719 5.93549 52.7672C5.99336 52.6624 6.02239 52.5377 6.02239 52.3928C6.02239 52.2823 6.00357 52.1804 5.96633 52.0869C5.92888 51.9937 5.86901 51.9164 5.78681 51.8554C5.72694 51.8021 5.64945 51.7592 5.55413 51.7268C5.45872 51.6946 5.33998 51.6782 5.19801 51.6782H4.84468V53.1358H5.1924Z" fill="white"/>
<path id="Vector_52" d="M8.75726 53.8098C8.75726 53.9469 8.77689 54.0756 8.81624 54.1956C8.85548 54.3156 8.91235 54.4204 8.98724 54.51C9.06193 54.5994 9.15364 54.669 9.26207 54.7186C9.3704 54.7682 9.49565 54.7929 9.63772 54.7929C9.76477 54.7929 9.88251 54.7758 9.99104 54.7415C10.0995 54.7073 10.2004 54.6635 10.2939 54.61L10.4229 54.9073C10.3069 54.9835 10.1742 55.0426 10.0247 55.0845C9.8751 55.1263 9.72752 55.1473 9.58165 55.1473C9.3722 55.1473 9.18908 55.109 9.03209 55.0328C8.8751 54.9567 8.74415 54.8528 8.63952 54.7214C8.5349 54.5898 8.4573 54.4376 8.40684 54.2641C8.35628 54.0907 8.33105 53.905 8.33105 53.7069C8.33105 53.5011 8.35819 53.3133 8.41245 53.1438C8.46652 52.9742 8.54141 52.8276 8.63672 52.7037C8.73203 52.58 8.84607 52.4847 8.97883 52.418C9.11149 52.3513 9.25826 52.3179 9.41905 52.3179C9.75916 52.3179 10.021 52.4428 10.2042 52.6923C10.3873 52.942 10.4789 53.2802 10.4789 53.707V53.8099L8.75726 53.8098ZM10.0527 53.484C10.049 53.3811 10.034 53.2802 10.0078 53.1811C9.98143 53.0821 9.94298 52.9944 9.89222 52.9181C9.84146 52.842 9.77769 52.78 9.70069 52.7323C9.6237 52.6847 9.53279 52.6608 9.42757 52.6608C9.32624 52.6608 9.23424 52.6828 9.15154 52.7266C9.06884 52.7704 8.99945 52.8295 8.94319 52.9038C8.88682 52.9781 8.84267 53.0649 8.81083 53.1637C8.77889 53.2629 8.76107 53.3696 8.75746 53.4839L10.0527 53.484Z" fill="white"/>
<path id="Vector_53" d="M12.2186 54.593C12.2933 54.6428 12.3849 54.6883 12.4934 54.7303C12.6018 54.7722 12.7308 54.7931 12.8803 54.7931C13.0336 54.7931 13.1664 54.7597 13.2785 54.693C13.3907 54.6265 13.4468 54.515 13.4468 54.3587C13.4468 54.2596 13.416 54.1796 13.3543 54.1186C13.2925 54.0576 13.2158 54.0043 13.1243 53.9586C13.0326 53.9129 12.9337 53.8681 12.8271 53.8242C12.7205 53.7805 12.6214 53.727 12.5299 53.6642C12.4382 53.6014 12.3616 53.5224 12.2999 53.4271C12.2383 53.3318 12.2074 53.2098 12.2074 53.0612C12.2074 52.8556 12.2831 52.6801 12.4345 52.5352C12.586 52.3903 12.8093 52.3179 13.1047 52.3179C13.2318 52.3179 13.3515 52.3303 13.4636 52.3552C13.5758 52.3801 13.6748 52.4095 13.7609 52.4438V52.8153C13.6711 52.7718 13.5748 52.7351 13.472 52.7054C13.3691 52.6758 13.2523 52.6608 13.1215 52.6608C13.0579 52.6608 12.9954 52.6668 12.9337 52.6782C12.8719 52.6894 12.8177 52.7096 12.771 52.7382C12.7243 52.7669 12.6859 52.8061 12.6561 52.8557C12.626 52.9054 12.6112 52.9664 12.6112 53.039C12.6112 53.1381 12.6421 53.2184 12.7037 53.2797C12.7654 53.3408 12.843 53.3953 12.9365 53.4429C13.0298 53.4907 13.1299 53.5356 13.2365 53.5775C13.3431 53.6196 13.443 53.673 13.5365 53.7379C13.63 53.803 13.7075 53.8831 13.7693 53.9787C13.831 54.0742 13.8618 54.1984 13.8618 54.3509C13.8618 54.4847 13.8366 54.6022 13.7861 54.7033C13.7356 54.8045 13.6655 54.8875 13.5758 54.9525C13.4861 55.0174 13.3813 55.0662 13.2617 55.0986C13.142 55.131 13.015 55.1473 12.8803 55.1473C12.7045 55.1473 12.5495 55.1224 12.4149 55.0729C12.2803 55.0234 12.17 54.972 12.084 54.9185L12.2186 54.593Z" fill="white"/>
<path id="Vector_54" d="M15.9245 55.1366C15.8496 55.1366 15.7861 55.1081 15.7338 55.0507C15.6814 54.9938 15.6553 54.927 15.6553 54.8508C15.6553 54.7747 15.6814 54.709 15.7338 54.6537C15.7861 54.5984 15.8496 54.5708 15.9245 54.5708C15.9992 54.5708 16.0619 54.5984 16.1123 54.6537C16.1628 54.709 16.188 54.7747 16.188 54.8508C16.188 54.927 16.1628 54.9938 16.1123 55.0507C16.0619 55.1081 15.9992 55.1366 15.9245 55.1366Z" fill="white"/>
<path id="Vector_55" d="M20.7646 51.3237H21.1516L22.1835 52.9071C22.262 53.029 22.3274 53.131 22.3798 53.213C22.4321 53.2949 22.4808 53.374 22.5257 53.4501H22.5369C22.5817 53.374 22.6312 53.2912 22.6854 53.2016C22.7396 53.112 22.8041 53.0064 22.879 52.8841L23.8491 51.3237H24.2361V55.0906H23.8211V52.6727C23.8211 52.5737 23.8211 52.467 23.8211 52.3526C23.8211 52.2383 23.8247 52.1316 23.8323 52.0324H23.8211C23.7799 52.1088 23.735 52.1898 23.6864 52.2754C23.6379 52.3613 23.5949 52.4328 23.5575 52.4898L22.6434 53.9759H22.4246L21.432 52.461C21.3908 52.404 21.3469 52.3383 21.3003 52.2639C21.2535 52.1895 21.2134 52.1162 21.1796 52.0438H21.1684C21.1759 52.1315 21.1796 52.2344 21.1796 52.3525C21.1796 52.4706 21.1796 52.5755 21.1796 52.6669V55.0904H20.7646V51.3237Z" fill="white"/>
<path id="Vector_56" d="M26.4336 51.3237H28.217L28.0824 51.6897H26.8486V52.9815H28.0655V53.3473H26.8486V54.725H28.2507V55.0908H26.4336V51.3237Z" fill="white"/>
<path id="Vector_57" d="M32.995 55.0909L31.2229 52.7016C31.1108 52.553 31.0117 52.4186 30.9257 52.2986C30.8395 52.1786 30.7649 52.0709 30.7014 51.9756H30.6902C30.6976 52.0709 30.7022 52.1653 30.7042 52.2585C30.706 52.3518 30.707 52.4728 30.707 52.6214V55.0907H30.292V51.3238H30.6902L32.395 53.6217C32.5146 53.7817 32.6183 53.9246 32.7062 54.0504C32.794 54.1761 32.8697 54.2868 32.9334 54.3819H32.9446C32.937 54.2829 32.9334 54.1847 32.9334 54.0876C32.9334 53.9902 32.9334 53.8674 32.9334 53.7189V51.3237H33.3427V55.0906L32.995 55.0909Z" fill="white"/>
<path id="Vector_58" d="M40.7401 55.0909L38.968 52.7016C38.8559 52.553 38.7568 52.4186 38.6709 52.2986C38.5848 52.1786 38.51 52.0709 38.4465 51.9756H38.4353C38.4427 52.0709 38.4473 52.1653 38.4493 52.2585C38.4511 52.3518 38.4521 52.4728 38.4521 52.6214V55.0907H38.0371V51.3238H38.4353L40.1401 53.6217C40.2598 53.7817 40.3635 53.9246 40.4514 54.0504C40.5391 54.1761 40.6149 54.2868 40.6785 54.3819H40.6897C40.6822 54.2829 40.6785 54.1847 40.6785 54.0876C40.6785 53.9902 40.6785 53.8674 40.6785 53.7189V51.3237H41.0879V55.0906L40.7401 55.0909Z" fill="white"/>
<path id="Vector_59" d="M44.2499 55.1476C44.063 55.1476 43.8946 55.1113 43.7451 55.0388C43.5955 54.9666 43.4676 54.8665 43.3609 54.7388C43.2544 54.6111 43.1721 54.4616 43.1142 54.2901C43.0562 54.1186 43.0273 53.9338 43.0273 53.7355C43.0273 53.5374 43.0562 53.3517 43.1142 53.1783C43.1721 53.005 43.2544 52.8543 43.3609 52.7268C43.4676 52.599 43.5965 52.4991 43.7479 52.4267C43.8994 52.3542 44.0685 52.3179 44.2555 52.3179C44.4385 52.3179 44.6059 52.3542 44.7574 52.4267C44.9088 52.4991 45.0378 52.599 45.1444 52.7268C45.2509 52.8545 45.3331 53.005 45.3911 53.1783C45.449 53.3518 45.4781 53.5375 45.4781 53.7355C45.4781 53.9338 45.449 54.1186 45.3911 54.2901C45.3331 54.4615 45.2509 54.6111 45.1444 54.7388C45.0378 54.8665 44.9088 54.9666 44.7574 55.0388C44.6059 55.1113 44.4367 55.1476 44.2499 55.1476ZM44.2527 54.7817C44.3765 54.7817 44.4871 54.7561 44.5847 54.7049C44.6822 54.6539 44.7658 54.5819 44.8351 54.4888C44.9045 54.3961 44.9579 54.286 44.9955 54.159C45.033 54.0321 45.0518 53.8909 45.0518 53.7355C45.0518 53.5802 45.033 53.4381 44.9955 53.3093C44.9579 53.1805 44.9045 53.0695 44.8351 52.9767C44.7656 52.8839 44.6822 52.8119 44.5847 52.7606C44.4871 52.7096 44.3783 52.6839 44.2583 52.6839C44.1345 52.6839 44.0228 52.7096 43.9235 52.7606C43.8241 52.8118 43.7397 52.8838 43.6703 52.9767C43.6008 53.0695 43.5473 53.1805 43.5097 53.3093C43.4723 53.4381 43.4536 53.5802 43.4536 53.7355C43.4536 53.8909 43.4723 54.0321 43.5097 54.159C43.5473 54.286 43.6007 54.3959 43.6703 54.4888C43.7397 54.5818 43.8231 54.6537 43.9207 54.7049C44.0181 54.7562 44.1289 54.7817 44.2527 54.7817Z" fill="white"/>
<path id="Vector_60" d="M47.5593 55.1366C47.4844 55.1366 47.4209 55.1081 47.3685 55.0507C47.3161 54.9938 47.29 54.927 47.29 54.8508C47.29 54.7747 47.3161 54.709 47.3685 54.6537C47.4209 54.5984 47.4844 54.5708 47.5593 54.5708C47.6339 54.5708 47.6966 54.5984 47.7471 54.6537C47.7975 54.709 47.8228 54.7747 47.8228 54.8508C47.8228 54.927 47.7975 54.9938 47.7471 55.0507C47.6966 55.1081 47.6339 55.1366 47.5593 55.1366Z" fill="white"/>
<path id="Vector_61" d="M53.4645 55.1471C53.2774 55.1471 53.1073 55.1052 52.9542 55.0213C52.8008 54.9375 52.6699 54.8147 52.5616 54.6527C52.4531 54.4906 52.3682 54.2897 52.3064 54.0496C52.2447 53.8095 52.2139 53.5332 52.2139 53.2208C52.2139 52.9082 52.2447 52.633 52.3064 52.3948C52.3682 52.1567 52.4531 51.9556 52.5616 51.7917C52.6699 51.6279 52.8008 51.504 52.9542 51.4202C53.1073 51.3363 53.2774 51.2944 53.4645 51.2944C53.6476 51.2944 53.8158 51.3363 53.9692 51.4202C54.1225 51.504 54.2542 51.6278 54.3645 51.7917C54.4748 51.9555 54.5609 52.1567 54.6225 52.3948C54.6842 52.633 54.7151 52.9083 54.7151 53.2208C54.7151 53.5331 54.6842 53.8095 54.6225 54.0496C54.5609 54.2897 54.4748 54.4906 54.3645 54.6527C54.2542 54.8147 54.1225 54.9375 53.9692 55.0213C53.8158 55.1052 53.6476 55.1471 53.4645 55.1471ZM53.4645 54.7812C53.7205 54.7812 53.9218 54.644 54.0688 54.3696C54.2156 54.0953 54.2888 53.7123 54.2888 53.2208C54.2888 52.7293 54.2164 52.3462 54.0714 52.0718C53.9264 51.7974 53.7242 51.6603 53.4645 51.6603C53.2085 51.6603 53.007 51.7974 52.8602 52.0718C52.7135 52.3462 52.6401 52.7293 52.6401 53.2208C52.6401 53.7123 52.7126 54.0953 52.8574 54.3696C53.0022 54.644 53.2047 54.7812 53.4645 54.7812Z" fill="white"/>
<path id="Vector_62" d="M57.7936 55.1471C57.6065 55.1471 57.4364 55.1052 57.2832 55.0213C57.1299 54.9375 56.999 54.8147 56.8907 54.6527C56.7822 54.4906 56.6972 54.2897 56.6355 54.0496C56.5738 53.8095 56.543 53.5332 56.543 53.2208C56.543 52.9082 56.5738 52.633 56.6355 52.3948C56.6972 52.1567 56.7822 51.9556 56.8907 51.7917C56.999 51.6279 57.1299 51.504 57.2832 51.4202C57.4364 51.3363 57.6065 51.2944 57.7936 51.2944C57.9767 51.2944 58.1449 51.3363 58.2983 51.4202C58.4515 51.504 58.5833 51.6278 58.6936 51.7917C58.8039 51.9555 58.8899 52.1567 58.9516 52.3948C59.0133 52.633 59.0442 52.9083 59.0442 53.2208C59.0442 53.5331 59.0133 53.8095 58.9516 54.0496C58.8899 54.2897 58.8039 54.4906 58.6936 54.6527C58.5833 54.8147 58.4515 54.9375 58.2983 55.0213C58.1449 55.1052 57.9767 55.1471 57.7936 55.1471ZM57.7936 54.7812C58.0496 54.7812 58.2509 54.644 58.3978 54.3696C58.5446 54.0953 58.6179 53.7123 58.6179 53.2208C58.6179 52.7293 58.5455 52.3462 58.4005 52.0718C58.2555 51.7974 58.0532 51.6603 57.7936 51.6603C57.5376 51.6603 57.3361 51.7974 57.1892 52.0718C57.0425 52.3462 56.9692 52.7293 56.9692 53.2208C56.9692 53.7123 57.0417 54.0953 57.1864 54.3696C57.3313 54.644 57.5338 54.7812 57.7936 54.7812Z" fill="white"/>
<path id="Vector_63" d="M62.1227 55.1471C61.9356 55.1471 61.7655 55.1052 61.6124 55.0213C61.459 54.9375 61.3281 54.8147 61.2198 54.6527C61.1113 54.4906 61.0263 54.2897 60.9646 54.0496C60.9029 53.8095 60.8721 53.5332 60.8721 53.2208C60.8721 52.9082 60.9029 52.633 60.9646 52.3948C61.0263 52.1567 61.1113 51.9556 61.2198 51.7917C61.3281 51.6279 61.459 51.504 61.6124 51.4202C61.7655 51.3363 61.9356 51.2944 62.1227 51.2944C62.3058 51.2944 62.474 51.3363 62.6274 51.4202C62.7807 51.504 62.9124 51.6278 63.0227 51.7917C63.133 51.9555 63.2191 52.1567 63.2808 52.3948C63.3424 52.633 63.3733 52.9083 63.3733 53.2208C63.3733 53.5331 63.3424 53.8095 63.2808 54.0496C63.2191 54.2897 63.133 54.4906 63.0227 54.6527C62.9124 54.8147 62.7807 54.9375 62.6274 55.0213C62.4742 55.1052 62.3058 55.1471 62.1227 55.1471ZM62.1227 54.7812C62.3787 54.7812 62.58 54.644 62.7269 54.3696C62.8738 54.0953 62.9471 53.7123 62.9471 53.2208C62.9471 52.7293 62.8746 52.3462 62.7296 52.0718C62.5846 51.7974 62.3823 51.6603 62.1227 51.6603C61.8667 51.6603 61.6652 51.7974 61.5184 52.0718C61.3716 52.3462 61.2983 52.7293 61.2983 53.2208C61.2983 53.7123 61.3708 54.0953 61.5156 54.3696C61.6604 54.644 61.8631 54.7812 62.1227 54.7812Z" fill="white"/>
<path id="Vector_64" d="M66.4527 55.1471C66.2657 55.1471 66.0957 55.1052 65.9424 55.0213C65.789 54.9375 65.6583 54.8147 65.5499 54.6527C65.4413 54.4906 65.3564 54.2897 65.2947 54.0496C65.233 53.8095 65.2021 53.5332 65.2021 53.2208C65.2021 52.9082 65.233 52.633 65.2947 52.3948C65.3564 52.1567 65.4413 51.9556 65.5499 51.7917C65.6583 51.6279 65.789 51.504 65.9424 51.4202C66.0957 51.3363 66.2657 51.2944 66.4527 51.2944C66.6359 51.2944 66.8042 51.3363 66.9574 51.4202C67.1107 51.504 67.2425 51.6278 67.3528 51.7917C67.463 51.9555 67.5492 52.1567 67.6108 52.3948C67.6725 52.633 67.7033 52.9083 67.7033 53.2208C67.7033 53.5331 67.6725 53.8095 67.6108 54.0496C67.5492 54.2897 67.463 54.4906 67.3528 54.6527C67.2425 54.8147 67.1107 54.9375 66.9574 55.0213C66.8042 55.1052 66.6359 55.1471 66.4527 55.1471ZM66.4527 54.7812C66.7088 54.7812 66.9101 54.644 67.0571 54.3696C67.2038 54.0953 67.2771 53.7123 67.2771 53.2208C67.2771 52.7293 67.2046 52.3462 67.0597 52.0718C66.9147 51.7974 66.7125 51.6603 66.4527 51.6603C66.1967 51.6603 65.9953 51.7974 65.8485 52.0718C65.7017 52.3462 65.6284 52.7293 65.6284 53.2208C65.6284 53.7123 65.7008 54.0953 65.8457 54.3696C65.9905 54.644 66.1929 54.7812 66.4527 54.7812Z" fill="white"/>
<path id="Vector_65" d="M69.458 55.0896C69.4842 54.7581 69.5479 54.479 69.6487 54.2522C69.7497 54.0256 69.8674 53.833 70.0022 53.6749C70.1367 53.517 70.2788 53.3825 70.4283 53.2721C70.5777 53.1616 70.7152 53.0558 70.8405 52.9547C70.9658 52.8538 71.0693 52.7491 71.1516 52.6404C71.2339 52.5317 71.2751 52.3994 71.2751 52.2432C71.2751 52.1403 71.2574 52.0517 71.2218 51.9774C71.1862 51.9031 71.1385 51.8422 71.0787 51.7947C71.0189 51.7469 70.9488 51.7127 70.8685 51.6916C70.788 51.6708 70.703 51.6602 70.6133 51.6602C70.4339 51.6602 70.2665 51.6869 70.1114 51.7402C69.9563 51.7936 69.8244 51.8508 69.7161 51.9117L69.5871 51.5803C69.7068 51.5078 69.8599 51.4421 70.0469 51.3829C70.2337 51.3239 70.4339 51.2944 70.6469 51.2944C70.8264 51.2944 70.9834 51.3182 71.118 51.3658C71.2527 51.4132 71.3638 51.4789 71.4517 51.5626C71.5395 51.6465 71.605 51.7444 71.6478 51.8566C71.6908 51.969 71.7123 52.0896 71.7123 52.2189C71.7123 52.4091 71.6741 52.5708 71.5976 52.704C71.5209 52.8372 71.4237 52.958 71.3059 53.0665C71.1882 53.1747 71.059 53.2775 70.9189 53.3745C70.7786 53.4716 70.644 53.5819 70.5151 53.7054C70.386 53.8291 70.2721 53.9717 70.1731 54.1334C70.0739 54.2951 70.0075 54.492 69.974 54.7241H71.7067V55.0898L69.458 55.0896Z" fill="white"/>
<path id="Vector_66" d="M73.9003 54.6153C74.02 54.6688 74.1451 54.7096 74.2761 54.7382C74.407 54.7668 74.5472 54.7811 74.6967 54.7811C74.8276 54.7811 74.9519 54.7668 75.0696 54.7382C75.1874 54.7096 75.2902 54.6638 75.3781 54.601C75.4658 54.5382 75.5351 54.4601 75.5854 54.3666C75.6359 54.2734 75.6611 54.16 75.6611 54.0264C75.6611 53.6912 75.4853 53.4834 75.134 53.4035C75.0181 53.3768 74.8592 53.3635 74.6573 53.3635H74.2535V52.9977H74.5956C74.7787 52.9977 74.9319 52.9787 75.0553 52.9409C75.1788 52.9028 75.2779 52.8517 75.3526 52.7872C75.4272 52.7226 75.4805 52.6476 75.5125 52.5625C75.5442 52.4769 75.5602 52.3868 75.5602 52.2919C75.5602 52.106 75.5059 51.9544 75.3975 51.8366C75.2892 51.7188 75.119 51.6602 74.8872 51.6602C74.7078 51.6602 74.5432 51.6869 74.3936 51.7402C74.2441 51.7936 74.1152 51.8508 74.0066 51.9117L73.8776 51.5803C74.0084 51.5041 74.1626 51.4374 74.3403 51.3803C74.518 51.3231 74.7095 51.2944 74.9151 51.2944C75.0983 51.2944 75.257 51.3203 75.3915 51.3715C75.526 51.4228 75.6376 51.4932 75.7262 51.5826C75.8146 51.672 75.8803 51.7758 75.9226 51.8937C75.965 52.0114 75.9862 52.135 75.9862 52.2645C75.9862 52.4814 75.9358 52.661 75.8348 52.8036C75.7339 52.9463 75.5843 53.0556 75.3862 53.1316V53.143C75.603 53.1887 75.7742 53.2862 75.8993 53.435C76.0246 53.5838 76.0872 53.7787 76.0872 54.019C76.0872 54.1756 76.0596 54.3216 76.004 54.4572C75.9487 54.5926 75.8638 54.712 75.749 54.8149C75.6342 54.9181 75.4891 54.9991 75.3134 55.0583C75.1376 55.1173 74.9301 55.1471 74.691 55.1471C74.519 55.1471 74.3553 55.1298 74.2003 55.0956C74.0452 55.0613 73.9076 55.0176 73.7881 54.9641L73.9003 54.6153Z" fill="white"/>
<path id="Vector_67" d="M81.8629 55.1477C81.6723 55.1477 81.4927 55.1191 81.3244 55.0619C81.1563 55.0049 81.0095 54.9181 80.8841 54.8019C80.7588 54.6858 80.6599 54.5419 80.587 54.3702C80.514 54.1988 80.4775 53.9987 80.4775 53.7701C80.4775 53.5528 80.5132 53.3548 80.5843 53.1756C80.6552 52.9966 80.7524 52.8432 80.8759 52.7154C80.9993 52.5879 81.1441 52.4897 81.3105 52.421C81.4769 52.3525 81.6554 52.3181 81.8461 52.3181C82.0068 52.3181 82.1564 52.3375 82.2946 52.376V51.0444H82.7041V54.9649C82.6106 55.0181 82.489 55.0619 82.3395 55.0962C82.1899 55.1305 82.031 55.1477 81.8629 55.1477ZM81.8796 54.7818C81.9507 54.7818 82.0234 54.7753 82.0985 54.7618C82.1732 54.7486 82.2386 54.7305 82.2946 54.7079V52.7522C82.2274 52.7294 82.1637 52.7125 82.1041 52.7011C82.0442 52.6897 81.9675 52.684 81.874 52.684C81.7431 52.684 81.6189 52.7077 81.5012 52.755C81.3832 52.8023 81.2805 52.8715 81.1927 52.9625C81.1048 53.0535 81.0347 53.1663 80.9824 53.3008C80.93 53.4353 80.9037 53.5878 80.9037 53.7584C80.9037 54.073 80.9898 54.3221 81.1619 54.5058C81.3337 54.69 81.5729 54.7818 81.8796 54.7818Z" fill="white"/>
<path id="Vector_68" d="M85.262 53.8098C85.262 53.9469 85.2818 54.0756 85.3209 54.1956C85.3602 54.3156 85.4172 54.4204 85.4921 54.51C85.5668 54.5994 85.6584 54.669 85.767 54.7186C85.8752 54.7682 86.0005 54.7929 86.1426 54.7929C86.2697 54.7929 86.3874 54.7758 86.4961 54.7415C86.6043 54.7073 86.7054 54.6635 86.7988 54.61L86.9277 54.9073C86.812 54.9835 86.6792 55.0426 86.5296 55.0845C86.38 55.1263 86.2324 55.1473 86.0865 55.1473C85.8773 55.1473 85.694 55.109 85.537 55.0328C85.3801 54.9567 85.249 54.8528 85.1444 54.7214C85.0397 54.5898 84.9622 54.4376 84.9116 54.2641C84.8614 54.0907 84.8359 53.905 84.8359 53.7069C84.8359 53.5011 84.8631 53.3133 84.9173 53.1438C84.9715 52.9744 85.0463 52.8276 85.1417 52.7037C85.2371 52.58 85.351 52.4847 85.4837 52.418C85.6164 52.3513 85.7631 52.3179 85.924 52.3179C86.2642 52.3179 86.526 52.4428 86.7092 52.6923C86.8924 52.942 86.984 53.2802 86.984 53.707V53.8099L85.262 53.8098ZM86.5575 53.484C86.5539 53.3811 86.5387 53.2802 86.5125 53.1811C86.4861 53.0821 86.4478 52.9944 86.3971 52.9181C86.3463 52.842 86.2826 52.78 86.2056 52.7323C86.1286 52.6847 86.0377 52.6608 85.9324 52.6608C85.8309 52.6608 85.739 52.6828 85.6564 52.7266C85.5737 52.7704 85.5043 52.8295 85.4481 52.9038C85.3917 52.9781 85.3475 53.0649 85.3157 53.1637C85.2838 53.2629 85.2659 53.3696 85.2621 53.4839L86.5575 53.484Z" fill="white"/>
<path id="Vector_69" d="M88.8232 51.0493H89.2326V54.4732C89.2326 54.5838 89.2494 54.6591 89.2831 54.6989C89.3167 54.7389 89.369 54.759 89.4401 54.759C89.4625 54.759 89.4904 54.7542 89.5242 54.7447C89.558 54.7351 89.5841 54.7267 89.6029 54.7189L89.6926 55.0459C89.6401 55.0722 89.5813 55.0918 89.516 55.1051C89.4505 55.1181 89.386 55.1247 89.3224 55.1247C89.1542 55.1247 89.0289 55.0789 88.9466 54.9869C88.8643 54.8948 88.8232 54.7676 88.8232 54.6045V51.0493Z" fill="white"/>
<path id="Vector_70" d="M94.7437 51.7516L93.8747 52.186L93.7295 51.849L94.8118 51.2944H95.1532V55.0898H94.7437V51.7516Z" fill="white"/>
<path id="Vector_71" d="M98.2779 51.7516L97.4088 52.186L97.2637 51.849L98.346 51.2944H98.6874V55.0898H98.2779V51.7516Z" fill="white"/>
<path id="Vector_72" d="M103.565 51.3237H105.349L105.214 51.6897H103.981V52.9815H105.197V53.3473H103.981V54.725H105.383V55.0908H103.565V51.3237Z" fill="white"/>
<path id="Vector_73" d="M107.308 52.3866H107.655L107.706 52.7351C107.851 52.6094 108 52.5086 108.152 52.4324C108.303 52.3562 108.465 52.3179 108.637 52.3179C108.741 52.3179 108.84 52.3351 108.935 52.3694C109.028 52.4037 109.111 52.459 109.184 52.5351C109.257 52.6113 109.314 52.7094 109.357 52.8295C109.4 52.9495 109.422 53.0953 109.422 53.2669V55.0903H109.013V53.4098C109.013 53.3068 109.005 53.2126 108.99 53.1269C108.976 53.0412 108.95 52.966 108.915 52.9011C108.878 52.8364 108.83 52.786 108.768 52.7496C108.707 52.7135 108.629 52.6953 108.536 52.6953C108.386 52.6953 108.245 52.7351 108.11 52.8153C107.975 52.8954 107.846 52.9907 107.722 53.1012V55.0903H107.308V52.3866Z" fill="white"/>
<path id="Vector_74" d="M111.659 53.8098C111.659 53.9469 111.679 54.0756 111.718 54.1956C111.757 54.3156 111.814 54.4204 111.889 54.51C111.963 54.5994 112.055 54.669 112.164 54.7186C112.272 54.7682 112.397 54.7929 112.539 54.7929C112.666 54.7929 112.784 54.7758 112.893 54.7415C113.002 54.7073 113.103 54.6635 113.196 54.61L113.325 54.9073C113.209 54.9835 113.076 55.0426 112.926 55.0845C112.777 55.1263 112.629 55.1473 112.483 55.1473C112.274 55.1473 112.09 55.109 111.934 55.0328C111.777 54.9567 111.646 54.8528 111.541 54.7214C111.437 54.5898 111.359 54.4376 111.309 54.2641C111.258 54.0907 111.232 53.905 111.232 53.7069C111.232 53.5011 111.259 53.3133 111.315 53.1438C111.369 52.9744 111.443 52.8276 111.539 52.7037C111.634 52.58 111.748 52.4847 111.88 52.418C112.013 52.3513 112.16 52.3179 112.321 52.3179C112.661 52.3179 112.922 52.4428 113.106 52.6923C113.289 52.942 113.381 53.2802 113.381 53.707V53.8099L111.659 53.8098ZM112.954 53.484C112.95 53.3811 112.935 53.2802 112.909 53.1811C112.883 53.0821 112.844 52.9944 112.794 52.9181C112.743 52.842 112.679 52.78 112.602 52.7323C112.525 52.6847 112.435 52.6608 112.33 52.6608C112.228 52.6608 112.136 52.6828 112.053 52.7266C111.97 52.7704 111.901 52.8295 111.845 52.9038C111.788 52.9781 111.744 53.0649 111.713 53.1637C111.681 53.2629 111.663 53.3696 111.659 53.4839L112.954 53.484Z" fill="white"/>
<path id="Vector_75" d="M117.553 55.0896C117.579 54.7581 117.643 54.479 117.743 54.2522C117.844 54.0256 117.962 53.833 118.096 53.6749C118.232 53.517 118.374 53.3825 118.523 53.2721C118.672 53.1616 118.81 53.0558 118.935 52.9547C119.061 52.8538 119.164 52.7491 119.246 52.6404C119.329 52.5317 119.37 52.3994 119.37 52.2432C119.37 52.1403 119.352 52.0517 119.316 51.9774C119.281 51.9031 119.233 51.8422 119.174 51.7947C119.114 51.7469 119.044 51.7127 118.963 51.6916C118.882 51.6708 118.797 51.6602 118.708 51.6602C118.528 51.6602 118.361 51.6869 118.206 51.7402C118.051 51.7936 117.919 51.8508 117.811 51.9117L117.682 51.5803C117.801 51.5078 117.954 51.4421 118.141 51.3829C118.329 51.3239 118.528 51.2944 118.741 51.2944C118.921 51.2944 119.078 51.3182 119.213 51.3658C119.347 51.4132 119.458 51.4789 119.546 51.5626C119.634 51.6465 119.699 51.7444 119.742 51.8566C119.785 51.969 119.806 52.0896 119.806 52.2189C119.806 52.4091 119.768 52.5708 119.692 52.704C119.615 52.8372 119.518 52.958 119.401 53.0665C119.283 53.1747 119.154 53.2775 119.013 53.3745C118.873 53.4716 118.738 53.5819 118.61 53.7054C118.481 53.8291 118.367 53.9717 118.268 54.1334C118.168 54.2951 118.102 54.492 118.068 54.7241H119.801V55.0898L117.553 55.0896Z" fill="white"/>
<path id="Vector_76" d="M122.931 55.1471C122.744 55.1471 122.574 55.1052 122.421 55.0213C122.267 54.9375 122.136 54.8147 122.028 54.6527C121.92 54.4906 121.835 54.2897 121.773 54.0496C121.712 53.8095 121.681 53.5332 121.681 53.2208C121.681 52.9082 121.712 52.633 121.773 52.3948C121.835 52.1567 121.92 51.9556 122.028 51.7917C122.136 51.6278 122.267 51.504 122.421 51.4202C122.574 51.3363 122.744 51.2944 122.931 51.2944C123.114 51.2944 123.283 51.3363 123.436 51.4202C123.589 51.504 123.721 51.6278 123.831 51.7917C123.941 51.9555 124.027 52.1567 124.09 52.3948C124.151 52.633 124.182 52.9083 124.182 53.2208C124.182 53.5331 124.151 53.8095 124.09 54.0496C124.027 54.2897 123.941 54.4906 123.831 54.6527C123.721 54.8147 123.589 54.9375 123.436 55.0213C123.283 55.1052 123.114 55.1471 122.931 55.1471ZM122.931 54.7812C123.187 54.7812 123.389 54.644 123.536 54.3696C123.682 54.0953 123.755 53.7123 123.755 53.2208C123.755 52.7293 123.683 52.3462 123.538 52.0718C123.394 51.7974 123.19 51.6603 122.931 51.6603C122.675 51.6603 122.474 51.7974 122.326 52.0718C122.18 52.3462 122.107 52.7293 122.107 53.2208C122.107 53.7123 122.179 54.0953 122.324 54.3696C122.469 54.644 122.672 54.7812 122.931 54.7812Z" fill="white"/>
<path id="Vector_77" d="M125.937 55.0897C125.963 54.7582 126.026 54.4791 126.127 54.2524C126.228 54.0257 126.346 53.8332 126.48 53.6751C126.615 53.5171 126.757 53.3827 126.907 53.2722C127.056 53.1618 127.193 53.0559 127.318 52.9548C127.444 52.8539 127.547 52.7492 127.63 52.6406C127.712 52.5318 127.753 52.3995 127.753 52.2434C127.753 52.1404 127.736 52.0518 127.7 51.9775C127.665 51.9032 127.617 51.8423 127.556 51.7948C127.497 51.747 127.427 51.7129 127.346 51.6917C127.266 51.6709 127.181 51.6603 127.092 51.6603C126.912 51.6603 126.744 51.687 126.589 51.7404C126.434 51.7937 126.303 51.8509 126.194 51.9118L126.065 51.5803C126.185 51.5078 126.338 51.4421 126.525 51.3829C126.711 51.3239 126.912 51.2944 127.125 51.2944C127.304 51.2944 127.461 51.3182 127.597 51.3658C127.731 51.4132 127.842 51.4789 127.93 51.5626C128.018 51.6465 128.083 51.7444 128.126 51.8566C128.169 51.969 128.19 52.0896 128.19 52.2189C128.19 52.4091 128.152 52.5708 128.076 52.704C127.999 52.8373 127.902 52.958 127.784 53.0665C127.667 53.1747 127.537 53.2775 127.397 53.3745C127.257 53.4716 127.122 53.5819 126.993 53.7054C126.865 53.8291 126.751 53.9717 126.651 54.1334C126.552 54.2951 126.485 54.492 126.452 54.7241H128.185V55.0898L125.937 55.0897Z" fill="white"/>
<path id="Vector_78" d="M130.373 54.6153C130.492 54.6688 130.617 54.7096 130.748 54.7382C130.879 54.7668 131.02 54.7811 131.169 54.7811C131.3 54.7811 131.424 54.7668 131.542 54.7382C131.659 54.7096 131.763 54.6638 131.851 54.601C131.938 54.5382 132.007 54.4601 132.058 54.3666C132.108 54.2734 132.133 54.16 132.133 54.0264C132.133 53.6912 131.958 53.4834 131.606 53.4035C131.49 53.3768 131.331 53.3635 131.13 53.3635H130.725V52.9977H131.068C131.251 52.9977 131.404 52.9787 131.527 52.9409C131.651 52.9028 131.75 52.8517 131.825 52.7872C131.9 52.7226 131.953 52.6476 131.985 52.5625C132.017 52.4769 132.033 52.3868 132.033 52.2919C132.033 52.106 131.978 51.9544 131.87 51.8366C131.762 51.7188 131.591 51.6602 131.359 51.6602C131.18 51.6602 131.016 51.6869 130.865 51.7402C130.716 51.7936 130.587 51.8508 130.479 51.9117L130.35 51.5803C130.481 51.5041 130.635 51.4374 130.812 51.3803C130.991 51.3231 131.182 51.2944 131.387 51.2944C131.57 51.2944 131.73 51.3203 131.864 51.3715C131.998 51.4228 132.11 51.4932 132.198 51.5826C132.287 51.672 132.352 51.7758 132.395 51.8937C132.437 52.0114 132.458 52.135 132.458 52.2645C132.458 52.4814 132.408 52.661 132.307 52.8036C132.206 52.9463 132.057 53.0556 131.859 53.1316V53.143C132.075 53.1887 132.246 53.2862 132.371 53.435C132.496 53.5838 132.56 53.7787 132.56 54.019C132.56 54.1756 132.531 54.3216 132.476 54.4572C132.421 54.5926 132.336 54.712 132.221 54.8149C132.106 54.9181 131.962 54.9991 131.786 55.0583C131.609 55.1173 131.402 55.1471 131.163 55.1471C130.991 55.1471 130.827 55.1298 130.672 55.0956C130.517 55.0613 130.38 55.0176 130.26 54.9641L130.373 54.6153Z" fill="white"/>
</g>
<defs>
<clipPath id="clip0_145_347">
<rect width="137" height="63" fill="white" transform="translate(0 0.134277)"/>
</clipPath>
</defs>
</svg>
