<svg width="238" height="62" viewBox="0 0 238 62" fill="none" xmlns="http://www.w3.org/2000/svg">
<g id="universidad-surcolombiana 1" clip-path="url(#clip0_145_313)">
<path id="Vector" d="M71.0583 20.6075L71.0478 22.5409C71.0478 22.8343 71.0374 23.1172 71.02 23.371C70.9615 24.241 70.6639 24.8272 70.0796 25.2369C69.6003 25.5695 68.9667 25.7446 68.2114 25.7446C67.675 25.7446 67.195 25.6666 66.7742 25.4915C66.4773 25.3731 66.1984 25.2171 65.9973 24.9831C65.6043 24.5429 65.4604 23.9863 65.4701 23.0095L65.4889 20.5976C65.4979 19.7086 65.4318 19.1719 65.2969 18.7515L65.5383 18.7621H66.1608L66.4676 18.7515L66.4105 19.4654C66.3994 19.6313 66.3994 19.983 66.3917 20.5203L66.3709 22.6195C66.3618 23.5192 66.4112 23.8013 66.5628 24.1636C66.8125 24.7401 67.4838 25.1016 68.2774 25.1016C68.7476 25.1016 69.1698 24.9931 69.5058 24.7981C69.7742 24.6322 69.985 24.3976 70.0998 24.1338C70.2625 23.7425 70.3015 23.3327 70.3106 22.3665L70.321 20.6082C70.3314 19.7192 70.2632 19.1818 70.1289 18.7614L70.378 18.7714H70.9143L71.1848 18.7614C71.0778 19.4555 71.0583 19.659 71.0583 20.6075Z" fill="white"/>
<path id="Vector_2" d="M79.6542 19.1904C79.6264 19.4257 79.6063 19.6597 79.6063 19.9029C79.6063 20.0992 79.5973 20.4898 79.5973 21.0762L79.5867 23.8304C79.5867 23.9863 79.5867 24.1821 79.5973 24.426C79.6264 24.9343 79.6355 25.1193 79.6828 25.6666H79.3204L78.9267 25.6758C78.5629 25.1101 78.4105 24.8946 78.0928 24.4847L75.266 20.8415L74.4995 19.8269L74.5196 20.3246L74.5092 23.5872C74.5092 24.3976 74.5857 25.1306 74.7289 25.5609L74.4799 25.5411H73.9339L73.6564 25.5609C73.6953 25.3646 73.7141 25.2193 73.7224 25.1207C73.7524 24.896 73.7802 24.662 73.7802 24.4174V23.5766L73.7906 20.5976C73.7906 19.7086 73.7434 19.1811 73.6084 18.7614L74.1057 18.7813L74.9606 18.7515C75.2951 19.3385 75.4391 19.5533 75.8126 20.0411L78.3522 23.3717L78.8891 24.0658L78.8599 23.3717L78.869 21.0676C78.869 20.0907 78.7834 19.2215 78.6311 18.7614L78.8599 18.7721H79.4456L79.7231 18.7614C79.6828 18.9564 79.6647 19.0932 79.6542 19.1904Z" fill="white"/>
<path id="Vector_3" d="M83.2599 25.5402H82.5608L82.2916 25.5592L82.3487 25.1204C82.4058 24.7 82.4169 24.6021 82.4169 23.7032L82.4266 20.5966C82.4266 19.7275 82.3682 19.1709 82.2354 18.7505L82.4746 18.7611H83.0972L83.4038 18.7505L83.3469 19.4644C83.3371 19.6303 83.3281 19.982 83.3281 20.5194L83.3169 23.7138C83.3169 24.6022 83.376 25.1389 83.5096 25.5592L83.2599 25.5402Z" fill="white"/>
<path id="Vector_4" d="M91.3342 19.2595L91.0734 19.8161L90.8069 20.4215L89.1863 24.3966C88.8997 25.0998 88.8614 25.2183 88.7647 25.706L88.5638 25.6862H88.1423L87.9016 25.706C87.8445 25.3451 87.8258 25.2374 87.654 24.7695L86.0924 20.4612C85.7661 19.553 85.5269 19.0936 85.3252 18.7611L85.5652 18.7717H86.3226L86.6572 18.7505C86.676 18.927 86.6843 19.0632 86.7031 19.1517C86.7435 19.3963 86.8672 19.7969 87.069 20.3825L88.1227 23.5182L88.458 24.5922L88.9081 23.4295L89.9423 20.6753C90.2025 19.9912 90.3256 19.5226 90.3256 19.1517C90.3256 19.0149 90.3159 18.9362 90.2602 18.7611L90.5649 18.7717H91.2841L91.561 18.7505L91.5797 18.7902C91.467 18.9958 91.38 19.1517 91.3342 19.2595Z" fill="white"/>
<path id="Vector_5" d="M97.4263 24.8663L97.34 25.2462L97.2725 25.5979C97.0987 25.5887 96.9741 25.5788 96.8976 25.5788C96.8594 25.5788 96.4768 25.5696 95.7401 25.5596L94.4548 25.5405L93.5053 25.5596L93.5637 25.1208C93.6208 24.6898 93.6305 24.6032 93.6305 23.7036L93.6402 20.597C93.6402 19.708 93.593 19.1812 93.458 18.7608L93.9658 18.7701H95.2978C96.3815 18.7701 96.4872 18.7608 97.1285 18.7417L97.0034 19.0544L96.8781 19.4542L96.812 19.6988L96.6959 19.7179C96.5248 19.5223 96.4378 19.4634 96.209 19.3946C95.9488 19.3166 95.6337 19.2776 95.2776 19.2776C95.1253 19.2776 94.8672 19.2875 94.5793 19.306L94.5396 20.4878V21.6505H95.8041C96.2083 21.6505 96.3801 21.6314 96.8392 21.5917L96.9261 21.6696L96.7912 21.9724L96.6659 22.3056C96.4754 22.2857 96.3313 22.2758 96.2361 22.2758C95.9098 22.2566 95.6032 22.246 95.2964 22.246C95.0377 22.246 94.9124 22.246 94.5292 22.2666V23.7313C94.5292 23.8482 94.5389 23.9949 94.548 24.1801C94.5674 24.5317 94.6057 24.6785 94.7205 24.8046C94.8742 24.9606 95.094 25.0102 95.6511 25.0102C96.0045 25.0102 96.282 24.991 96.5422 24.9414C96.6652 24.9223 96.8002 24.8833 96.9254 24.8245C97.0966 24.7458 97.1925 24.6777 97.3845 24.4919L97.5097 24.5508L97.4263 24.8663Z" fill="white"/>
<path id="Vector_6" d="M104.809 25.5587L104.561 25.5694L103.833 25.5884L103.429 25.6168L103.316 25.4417L103.19 25.2177C103.143 25.1206 103.066 25.0022 102.979 24.8554C102.575 24.1911 102.154 23.5758 101.646 22.8533C101.217 22.238 101.034 22.0813 100.804 21.8381C101.263 21.8282 101.551 21.8083 101.79 21.7105C102.251 21.5347 102.529 21.0172 102.529 20.45C102.529 19.6985 102.049 19.2093 101.245 19.2093C101.073 19.2093 100.918 19.2199 100.564 19.2682C100.544 19.6793 100.535 19.7772 100.535 20.5188L100.526 23.7132C100.526 24.6023 100.584 25.1396 100.716 25.5587L100.469 25.5403H99.7684L99.4992 25.5587C99.605 24.8653 99.6244 24.6306 99.6244 23.7033L99.6349 20.5967C99.6349 19.7077 99.5868 19.181 99.4512 18.7605L99.9507 18.7804L100.861 18.7506C101.111 18.7407 101.332 18.7407 101.541 18.7407C102.356 18.7407 102.653 18.8187 102.979 19.0818C103.295 19.3462 103.468 19.785 103.468 20.2636C103.468 20.6733 103.334 21.1036 103.084 21.3766C102.874 21.6027 102.605 21.7877 102.145 22.0309L102.365 22.3337L103.275 23.6622C103.697 24.2876 104.118 24.8249 104.407 25.1269C104.56 25.2836 104.628 25.3424 104.818 25.4893L104.809 25.5587Z" fill="white"/>
<path id="Vector_7" d="M107.897 25.7839C107.781 25.7839 107.657 25.7747 107.523 25.7655C107.129 25.7258 106.947 25.6868 106.478 25.511L106.583 25.1692L106.698 24.7205L106.757 24.4766L106.89 24.4468C107.063 24.7204 107.149 24.8283 107.33 24.9452C107.571 25.1111 107.906 25.2089 108.194 25.2089C108.97 25.2089 109.544 24.6814 109.544 23.9881C109.544 23.7144 109.457 23.4508 109.296 23.2458C109.095 22.9921 108.835 22.797 108.251 22.4745C107.379 21.9967 107.253 21.9087 106.995 21.6443C106.707 21.3409 106.545 20.9212 106.545 20.4717C106.545 19.3091 107.447 18.5278 108.807 18.5278C108.922 18.5278 109.036 18.5384 109.152 18.5476C109.525 18.5767 109.726 18.6263 110.216 18.7922L110.109 19.0652L109.967 19.5239L109.919 19.7287L109.795 19.7479C109.449 19.2693 109.105 19.0943 108.539 19.0943C107.828 19.0943 107.36 19.5139 107.36 20.1385C107.36 20.4327 107.474 20.6958 107.686 20.8914C107.906 21.0878 108.136 21.2431 108.759 21.5855C109.544 22.0158 109.783 22.1909 110.043 22.5227C110.274 22.8254 110.388 23.1977 110.388 23.5975C110.388 24.8666 109.354 25.7839 107.897 25.7839Z" fill="white"/>
<path id="Vector_8" d="M113.504 25.5402H112.805L112.536 25.5592L112.593 25.1204C112.651 24.7 112.661 24.6021 112.661 23.7032L112.672 20.5966C112.672 19.7275 112.613 19.1709 112.479 18.7505L112.719 18.7611H113.342L113.648 18.7505L113.591 19.4644C113.582 19.6303 113.572 19.982 113.572 20.5194L113.562 23.7138C113.562 24.6022 113.621 25.1389 113.753 25.5592L113.504 25.5402Z" fill="white"/>
<path id="Vector_9" d="M121.176 24.748C120.478 25.3259 119.663 25.5698 118.437 25.5698C118.206 25.5698 117.814 25.54 117.238 25.54H116.538L116.27 25.5591L116.327 25.1203C116.384 24.6999 116.395 24.602 116.395 23.7031L116.406 20.6362C116.406 19.7464 116.348 19.1807 116.213 18.7603C116.501 18.771 116.338 18.7709 117.086 18.7709C117.479 18.7709 118.11 18.7603 118.504 18.7603C118.838 18.7603 119.127 18.7603 119.367 18.7709C120.153 18.7893 120.632 18.8879 121.054 19.1119C121.945 19.5898 122.472 20.6263 122.472 21.8669C122.472 23.0289 122.012 24.0745 121.176 24.748ZM120.784 20.0406C120.305 19.4941 119.712 19.2877 118.552 19.2877C118.245 19.2877 117.938 19.3091 117.335 19.3373L117.305 20.5192L117.297 23.6932C117.297 23.8201 117.305 23.9775 117.315 24.1433C117.334 24.495 117.372 24.6417 117.486 24.7687C117.554 24.836 117.631 24.8856 117.728 24.9147C117.929 24.9721 118.283 25.0026 118.637 25.0026C120.391 25.0026 121.456 23.9179 121.456 22.1115C121.456 21.2721 121.217 20.539 120.784 20.0406Z" fill="white"/>
<path id="Vector_10" d="M129.557 25.5395H128.943L128.522 25.5693L128.456 25.1574C128.397 24.8455 128.301 24.5427 128.109 23.9769L127.785 23.01L127.199 22.9894H126.06L125.388 23.01L125.062 23.899C124.88 24.4066 124.784 24.8164 124.784 25.1099C124.784 25.2566 124.794 25.3538 124.851 25.5587L124.554 25.5395H123.893L123.635 25.5587L123.596 25.4998L123.825 25.0596C123.893 24.9326 123.979 24.7476 124.093 24.503C124.208 24.2506 124.295 24.0436 124.354 23.8983L125.944 19.9118C126.174 19.3461 126.222 19.1803 126.345 18.691L126.547 18.6627L126.969 18.5932L127.179 18.5542C127.275 18.9647 127.314 19.1199 127.477 19.5503L129.067 23.8586C129.192 24.2102 129.394 24.6689 129.624 25.1375C129.709 25.3133 129.747 25.3821 129.853 25.5572L129.557 25.5395ZM126.634 19.6397L125.59 22.4435L126.156 22.4634H127.085L127.582 22.4435L126.634 19.6397Z" fill="white"/>
<path id="Vector_11" d="M136.694 24.748C135.994 25.3259 135.181 25.5698 133.954 25.5698C133.724 25.5698 133.331 25.54 132.755 25.54H132.057L131.787 25.5591L131.845 25.1203C131.903 24.6999 131.913 24.602 131.913 23.7031L131.922 20.6362C131.922 19.7464 131.865 19.1807 131.731 18.7603C132.019 18.771 131.857 18.7709 132.601 18.7709C132.995 18.7709 133.628 18.7603 134.021 18.7603C134.356 18.7603 134.644 18.7603 134.883 18.7709C135.668 18.7893 136.148 18.8879 136.569 19.1119C137.46 19.5898 137.988 20.6263 137.988 21.8669C137.987 23.0289 137.528 24.0745 136.694 24.748ZM136.302 20.0406C135.822 19.4941 135.228 19.2877 134.067 19.2877C133.761 19.2877 133.455 19.3091 132.851 19.3373L132.821 20.5192L132.812 23.6932C132.812 23.8201 132.821 23.9775 132.833 24.1433C132.85 24.495 132.89 24.6417 133.004 24.7687C133.07 24.836 133.148 24.8856 133.243 24.9147C133.444 24.9721 133.8 25.0026 134.154 25.0026C135.908 25.0026 136.972 23.9179 136.972 22.1115C136.972 21.2721 136.731 20.539 136.302 20.0406Z" fill="white"/>
<path id="Vector_12" d="M66.6075 44.3048C67.4798 44.8975 68.5189 45.3427 69.723 45.3427C70.783 45.3427 71.8417 44.962 71.8417 43.9028C71.8417 41.3846 65.985 41.7023 65.985 37.4258C65.985 35.3302 67.6252 33.4458 70.5751 33.4458C72.0295 33.4458 73.2544 33.7847 74.0424 34.1874V36.7906C72.8593 36.1986 71.7575 35.8796 70.6585 35.8796C69.7849 35.8796 69.0177 36.1986 69.0177 37.1713C69.0177 39.5428 74.8736 39.2046 74.8736 43.649C74.8736 46.1892 72.6937 47.756 69.8273 47.756C68.2276 47.756 66.6285 47.3115 65.5273 46.4855L66.6075 44.3048Z" fill="white"/>
<path id="Vector_13" d="M78.1021 45.1521C77.7071 44.3892 77.499 43.4166 77.499 42.2723V33.5933H80.3439V42.1035C80.3439 42.8239 80.4893 43.4583 80.739 43.9454C81.2176 44.8557 82.1302 45.3427 83.3975 45.3427C84.6433 45.3427 85.5579 44.8557 86.0357 43.9454C86.3057 43.4583 86.4294 42.8239 86.4294 42.083V33.5933H89.2757V42.2723C89.2757 43.4158 89.0664 44.3885 88.6733 45.1521C87.7795 46.9293 85.9106 47.7553 83.3773 47.7553C80.8433 47.7553 78.9952 46.9293 78.1021 45.1521Z" fill="white"/>
<path id="Vector_14" d="M92.7051 33.5933H96.7951C98.0227 33.5933 98.9353 33.784 99.6622 34.1222C101.241 34.8205 101.843 36.1547 101.843 37.6372C101.843 39.4563 100.722 40.7267 99.1843 41.2145V41.2571C99.5995 41.4903 100.204 42.2517 100.929 43.5434L103.151 47.544H99.8903L98.0846 44.1999C97.3995 42.8869 96.9202 42.358 96.5884 42.2729H95.5507V47.544H92.7058L92.7051 33.5933ZM96.6079 39.9228C97.2312 39.9228 97.6256 39.8179 97.9803 39.6265C98.5193 39.2876 98.8936 38.7162 98.8936 37.9335C98.8936 37.1926 98.5611 36.5567 97.9595 36.2391C97.6485 36.0491 97.2534 35.9428 96.6295 35.9428H95.55V39.9221L96.6079 39.9228Z" fill="white"/>
<path id="Vector_15" d="M116.007 46.6125C114.408 47.5029 112.871 47.7553 111.459 47.7553C106.868 47.7553 104.418 44.7926 104.418 40.7062C104.418 36.7049 107.285 33.4458 111.811 33.4458C113.329 33.4458 114.574 33.7208 115.467 34.1243V36.7906C114.368 36.1972 113.183 35.881 111.875 35.881C108.884 35.881 107.451 38.1036 107.451 40.6651C107.451 43.4172 109.134 45.3427 111.812 45.3427C113.204 45.3427 114.223 44.9188 115.219 44.3275L116.007 46.6125Z" fill="white"/>
<path id="Vector_16" d="M117.481 40.5999C117.481 36.3667 120.346 33.4458 124.458 33.4458C128.571 33.4458 131.437 36.3872 131.437 40.5999C131.437 44.8762 128.551 47.7553 124.458 47.7553C120.346 47.7553 117.481 44.8556 117.481 40.5999ZM128.405 40.5999C128.405 37.5726 126.826 35.8789 124.458 35.8789C122.112 35.8789 120.512 37.5513 120.512 40.5999C120.512 43.6702 122.112 45.3413 124.458 45.3413C126.806 45.342 128.405 43.6702 128.405 40.5999Z" fill="white"/>
<path id="Vector_17" d="M134.273 33.5933H137.119V45.0889H141.896V47.5433H134.273V33.5933Z" fill="white"/>
<path id="Vector_18" d="M143.083 40.5999C143.083 36.3667 145.948 33.4458 150.06 33.4458C154.172 33.4458 157.04 36.3872 157.04 40.5999C157.04 44.8762 154.152 47.7553 150.06 47.7553C145.948 47.7553 143.083 44.8556 143.083 40.5999ZM154.007 40.5999C154.007 37.5726 152.428 35.8789 150.06 35.8789C147.715 35.8789 146.115 37.5513 146.115 40.5999C146.115 43.6702 147.715 45.3413 150.06 45.3413C152.408 45.342 154.007 43.6702 154.007 40.5999Z" fill="white"/>
<path id="Vector_19" d="M159.876 33.5933H162.45L165.959 38.653C166.418 39.3103 166.75 39.8384 167.062 40.3885H167.104C167.373 39.859 167.725 39.2663 168.161 38.568L171.339 33.5933H173.935V47.5433H171.089V40.0512C171.089 39.4996 171.089 38.8644 171.109 38.3787H171.089C170.924 38.7389 170.383 39.5428 170.154 39.9015L167.704 43.7546H166.417L163.655 39.7761C163.362 39.3741 163.032 38.9296 162.74 38.4H162.698C162.719 38.887 162.719 39.5223 162.719 39.9668V47.544H159.874V33.5933H159.876Z" fill="white"/>
<path id="Vector_20" d="M177.463 33.5942H181.763C184.733 33.5942 186.061 35.351 186.061 37.1283C186.061 38.2711 185.5 39.3934 184.44 39.9443V39.9868C186.082 40.4314 186.997 41.7861 186.997 43.3529C186.997 45.4691 185.376 47.5449 182.136 47.5449H177.464L177.463 33.5942ZM181.389 39.2877C182.635 39.2877 183.28 38.5675 183.28 37.6579C183.28 36.705 182.656 35.9635 181.327 35.9635H180.307V39.2871L181.389 39.2877ZM181.763 45.1727C183.342 45.1727 184.129 44.6233 184.129 43.3529C184.129 42.2732 183.341 41.6586 182.031 41.6586H180.307V45.1727H181.763Z" fill="white"/>
<path id="Vector_21" d="M192.597 33.5923H189.752V47.5423H192.597V33.5923Z" fill="white"/>
<path id="Vector_22" d="M199.852 33.5298H202.157L207.744 47.5451H204.691L203.362 44.1357H198.711L197.443 47.5451H194.515L199.852 33.5298ZM202.511 41.8075L201.7 39.4581C201.369 38.4421 201.201 37.848 201.077 37.383H201.034C200.931 37.87 200.724 38.4627 200.35 39.4779L199.521 41.8075H202.511Z" fill="white"/>
<path id="Vector_23" d="M219.663 47.5449L213.932 39.9024C213.433 39.2254 212.996 38.5894 212.521 37.9755H212.479C212.541 38.4845 212.541 39.3523 212.541 40.0294V47.5449H209.695V33.5942H212.541L218.043 40.9396C218.584 41.638 219.02 42.2519 219.436 42.8652H219.477C219.436 42.1243 219.436 41.1942 219.436 40.537V33.5942H222.281V47.5449H219.663Z" fill="white"/>
<path id="Vector_24" d="M229.57 33.5298H231.874L237.461 47.5451H234.408L233.079 44.1357H228.426L227.16 47.5451H224.231L229.57 33.5298ZM232.228 41.8075L231.418 39.4581C231.086 38.4421 230.918 37.848 230.794 37.383H230.752C230.649 37.87 230.441 38.4627 230.066 39.4779L229.237 41.8075H232.228Z" fill="white"/>
<path id="Vector_25" d="M29.4606 61.3827C29.0405 61.3827 28.7366 61.3755 28.5439 61.3699C28.3665 61.3755 28.0619 61.3827 27.6418 61.3827C25.5523 61.382 22.2768 61.2217 18.5341 60.471C13.2234 59.404 9.12514 57.7628 6.00274 55.4537C5.96449 55.4253 5.89561 55.3778 5.80589 55.3155L5.75511 55.28C5.56314 55.146 5.29674 54.9631 4.99625 54.7101C4.69716 54.4597 4.43633 54.2038 4.20262 53.9266C3.75189 53.3977 3.38671 52.7718 3.14884 52.1145C2.87548 51.3808 2.74053 50.5726 2.74053 49.7112V14.3394L1.87942 13.8511C1.56641 13.6731 1.28332 13.4547 1.03847 13.2045C0.674 12.8379 0.378385 12.3665 0.209361 11.8816C0.0688575 11.4895 0 11.0748 0 10.6529V6.71473C0 6.07029 0.187104 3.96966 2.59445 3.96966H15.114C15.7219 3.5847 21.3413 0.154785 28.4069 0.154785H28.5509H28.6928C35.7577 0.154785 41.3778 3.584 41.9864 3.96966H54.5052C56.9154 3.96966 57.1004 6.07029 57.1004 6.71473V10.6529C57.1004 11.0748 57.0301 11.4895 56.8904 11.8816C56.7214 12.3665 56.4271 12.8379 56.062 13.2059C55.8185 13.4547 55.5346 13.6731 55.221 13.8511L54.3584 14.3394V49.7112C54.3612 50.5726 54.225 51.3801 53.9536 52.1145C53.7144 52.7718 53.3492 53.3977 52.8978 53.9266C52.6641 54.2045 52.4033 54.4605 52.1062 54.7101C51.8037 54.9624 51.5401 55.1453 51.3446 55.28L51.2945 55.3155C51.2034 55.3778 51.1353 55.4253 51.0976 55.4537C47.976 57.7628 43.877 59.404 38.5663 60.471C34.8256 61.2225 31.5501 61.3827 29.4606 61.3827Z" fill="white"/>
<path id="Vector_26" d="M40.3967 7.79693V10.4619C40.3967 10.705 40.6416 10.9064 40.7542 10.9709C42.6247 12.045 43.0107 12.2768 43.0107 12.7794V45.4281C43.0107 46.5255 42.6037 46.8247 41.8115 47.2225C39.7721 48.2469 35.2565 50.0816 28.5861 50.0816C21.9135 50.0816 17.3993 48.2469 15.3598 47.2225C14.569 46.824 14.1586 46.5255 14.1586 45.4281V12.7802C14.1586 12.2818 14.5391 12.0244 16.3753 10.9716C16.5013 10.8986 16.7739 10.7526 16.7739 10.4024V7.85721C16.7739 7.51194 16.5799 6.89374 16.0102 6.89374H3.8823C3.31402 6.89374 3.11719 7.31769 3.11719 7.85721V10.4626C3.11719 10.7809 3.46496 10.8816 3.62146 10.9716C5.36177 11.9719 5.70678 12.2909 5.70678 12.7802V49.3294C5.70678 51.4343 6.35991 52.0348 7.09652 52.5793C15.3905 58.7188 28.5854 58.0928 28.5854 58.0928C28.5854 58.0928 41.1542 58.7188 49.4481 52.5793C50.184 52.0348 51.4632 51.4343 51.4632 49.3294V12.7802C51.4632 12.2747 51.9674 12.0578 53.8719 10.9716C53.9776 10.9099 54.2058 10.7674 54.2058 10.4626V7.79764C54.2058 7.45238 53.9603 6.86182 53.392 6.86182H41.2092C40.6416 6.86111 40.3967 7.45167 40.3967 7.79693Z" fill="#8F141B"/>
<path id="Vector_27" d="M22.0404 22.9772C20.1888 21.8677 19.4473 20.359 19.1511 19.2893C18.8297 18.128 18.9465 17.2375 18.9514 17.2007L19.2589 17.2447C19.2547 17.2786 18.8381 20.6887 22.199 22.7028L22.0404 22.9772Z" fill="#4A5F68"/>
<path id="Vector_28" d="M37.1484 21.071L36.8945 20.8859C38.1444 19.0987 37.8655 17.1732 37.8627 17.154L38.1723 17.1108C38.1848 17.1917 38.4713 19.1817 37.1484 21.071Z" fill="#4A5F68"/>
<path id="Vector_29" d="M29.7783 46.7847C28.6681 46.7847 27.6387 46.5508 26.7164 46.0871V46.2629C26.7164 46.3962 26.6107 46.5019 26.4813 46.5019H20.0981C19.9701 46.5019 19.863 46.3962 19.863 46.2629V36.2249C19.863 36.0938 19.9701 35.9867 20.0981 35.9867H24.9525C24.3495 35.516 23.3951 34.7687 22.8588 34.3341C21.9581 33.6039 19.8623 31.5912 19.8623 28.6675C19.8623 25.0554 21.4864 23.0874 22.847 22.07C24.7479 20.6514 26.8061 20.5415 27.3932 20.5415C28.5047 20.5415 29.5314 20.7754 30.4551 21.2412V21.0633C30.4551 20.9314 30.5594 20.8251 30.6889 20.8251H37.0727C37.202 20.8251 37.3078 20.9314 37.3078 21.0633V31.1007C37.3078 31.2339 37.202 31.3403 37.0727 31.3403H32.2135C32.7491 31.7613 33.5886 32.4221 34.3106 32.9907C35.7581 34.1335 37.3085 36.2235 37.3085 38.6587C37.3085 42.3361 35.6795 44.3041 34.3127 45.3066C32.4479 46.6776 30.3703 46.7847 29.7783 46.7847ZM26.4813 45.4505C26.5224 45.4505 26.5613 45.4612 26.5975 45.4817C27.5504 46.0375 28.5909 46.3069 29.7783 46.3069C30.3354 46.3069 32.2872 46.2062 34.0387 44.9181C35.3171 43.9802 36.8383 42.1326 36.8383 38.658C36.8383 36.3965 35.3832 34.4426 34.0233 33.3693C32.8575 32.4476 31.3837 31.2885 31.3837 31.2885C31.3044 31.2268 31.2724 31.1205 31.3044 31.0226C31.3377 30.9262 31.4254 30.861 31.5277 30.861H36.8383V21.3014H30.926V21.6354C30.926 21.7226 30.8815 21.7998 30.8078 21.8431C30.7354 21.8849 30.6478 21.8864 30.574 21.8431C29.6225 21.2894 28.5819 21.0186 27.3939 21.0186C26.8445 21.0186 24.9121 21.1236 23.1252 22.4557C21.851 23.4049 20.3319 25.2546 20.3319 28.666C20.3319 31.3821 22.303 33.2714 23.1509 33.9584C23.9682 34.622 25.7691 36.0207 25.7879 36.0356C25.8679 36.0966 25.8984 36.203 25.8679 36.3007C25.8344 36.3979 25.7447 36.4631 25.6452 36.4631H20.3319V46.0226H26.2462V45.688C26.2462 45.6022 26.2908 45.5249 26.3624 45.4809C26.3992 45.4612 26.4403 45.4505 26.4813 45.4505Z" fill="#4A5F68"/>
<path id="Vector_30" d="M29.7793 45.1615C28.0745 45.1615 27.1118 44.4844 26.595 44.12L26.458 44.0214C26.1401 43.7924 25.9829 43.6819 25.6629 43.7187C25.2178 43.7683 25.1246 44.0512 25.1246 44.2802V44.7332C25.1246 44.8126 25.0613 44.8772 24.9827 44.8772H21.6016C21.5223 44.8772 21.459 44.8126 21.459 44.7332V37.7522C21.459 37.6728 21.5223 37.6083 21.6016 37.6083H26.563C26.5936 37.6083 26.6263 37.6203 26.6513 37.6408C26.6625 37.6515 27.8637 38.6448 28.2421 38.9304L28.3207 38.9921C28.5085 39.1403 28.7951 39.3629 29.1074 39.3629C29.3418 39.3629 29.5609 39.2445 29.78 38.997C29.9664 38.7908 30.0534 38.5681 30.038 38.3357C30.0234 38.0846 29.883 37.8316 29.6465 37.6232L23.9122 33.1086C22.9961 32.3747 21.459 30.8215 21.459 28.6648C21.459 23.5221 25.3416 22.1616 27.3956 22.1616C29.1004 22.1616 30.061 22.8401 30.5799 23.2038L30.717 23.3017C31.0341 23.5292 31.1878 23.6383 31.5119 23.6036C31.9564 23.554 32.0497 23.2705 32.0497 23.0415V22.5891C32.0497 22.509 32.1136 22.4438 32.1908 22.4438H35.5741C35.652 22.4438 35.7159 22.509 35.7159 22.5891V29.5688C35.7159 29.6503 35.652 29.7134 35.5741 29.7134H30.6125C30.5806 29.7134 30.5493 29.702 30.5228 29.6815C30.511 29.673 29.3105 28.6769 28.9314 28.3926L28.8514 28.3302C28.6643 28.1835 28.3799 27.9608 28.0675 27.9608C27.8324 27.9608 27.614 28.0793 27.3935 28.3245C27.2085 28.5316 27.1216 28.7541 27.1362 28.9867C27.1508 29.2391 27.2913 29.4901 27.5277 29.6985L33.2627 34.2138C34.8918 35.5544 35.7159 37.0474 35.7159 38.6568C35.7159 41.0587 34.9313 42.8509 33.383 43.9881C31.9029 45.0764 30.2509 45.1615 29.7793 45.1615Z" fill="#8F141B"/>
<path id="Vector_31" d="M28.5101 20.7583C25.0163 20.7583 22.6305 19.78 21.2429 18.959C19.7349 18.0651 19.0637 17.1775 19.0352 17.1405L19.2835 16.9478C19.3106 16.9824 21.9753 20.44 28.5101 20.44C31.9261 20.44 34.2534 19.49 35.6021 18.6939C37.0656 17.8304 37.7298 16.9562 37.7361 16.9478L37.9851 17.1405C37.9559 17.1781 37.2847 18.0658 35.776 18.959C34.3911 19.78 32.0054 20.7583 28.5101 20.7583Z" fill="#4A5F68"/>
<path id="Vector_32" d="M39.8425 42.7304C39.8425 42.4793 39.8397 41.993 39.8369 41.3287C39.8327 39.7322 39.8251 37.1629 39.8223 34.3392V34.1478C39.8209 33.0793 39.8188 31.3417 39.8188 30.2436C40.7134 29.7168 42.693 27.4524 39.7173 19.3974C39.3222 18.2219 38.8666 17.571 38.5244 17.2294C38.9577 17.018 39.3097 16.6133 39.5205 16.2418C40.0345 15.3393 40.2035 14.156 40.2932 13.5201C40.3134 13.3854 40.3266 13.2791 40.3419 13.2131C40.4775 12.5517 40.3064 12.2121 39.7034 11.9597L38.9293 11.6315V7.79462C38.9293 7.03887 38.998 6.97649 39.2248 6.76522C39.2722 6.71844 39.3298 6.6681 39.3911 6.60358C39.6338 6.35758 39.7368 6.06336 39.6819 5.77481C39.6338 5.52952 39.4495 5.18214 38.8437 4.91911C34.2669 2.88371 30.0155 2.72705 28.8206 2.72705C28.6912 2.72705 28.6167 2.72917 28.6167 2.72917C28.6056 2.72917 28.5312 2.72705 28.4012 2.72705C27.2075 2.72705 22.9576 2.88442 18.3815 4.91911C17.7715 5.18214 17.5892 5.52952 17.5434 5.77481C17.4863 6.06407 17.5892 6.35758 17.8313 6.60358C17.8877 6.66314 17.9426 6.71277 17.9906 6.75744C18.2188 6.97296 18.2793 7.02966 18.2793 7.79462L18.2807 11.6287C18.0977 11.7023 17.7799 11.835 17.4988 11.9618C16.8972 12.2312 16.7309 12.5588 16.868 13.2131C16.8812 13.2791 16.8972 13.3854 16.9159 13.5201C17.0057 14.156 17.1754 15.3393 17.6887 16.2418C17.9684 16.731 18.2702 17.0543 18.6027 17.2279C18.207 17.6384 17.8118 18.3361 17.4453 19.2917C14.992 25.9296 15.7718 29.3517 17.359 30.2684C17.3612 34.3448 17.3702 39.1373 17.3778 41.3337C17.3785 41.9966 17.3799 42.4801 17.3813 42.7311C17.1309 42.9594 16.8471 43.4754 16.7643 43.993C16.6732 44.5658 16.822 45.0692 17.1942 45.4499C18.1811 46.4552 24.6896 47.788 28.6105 47.788C32.5328 47.788 39.0384 46.4552 40.0275 45.4499C40.3989 45.0692 40.5492 44.5658 40.4595 43.993C40.3774 43.4761 40.0915 42.96 39.8425 42.7304ZM39.526 12.4021C39.9204 12.568 39.9733 12.6758 39.8842 13.116C39.8683 13.1891 39.8502 13.3053 39.8299 13.4527C39.7451 14.0575 39.583 15.1826 39.1157 16.0029C39.0029 16.2021 38.8339 16.4219 38.6308 16.5956C38.4979 16.7097 38.114 16.9039 38.0709 16.1957C38.0417 15.732 38.0994 15.2712 38.2678 14.8189C38.699 13.6626 38.8819 12.9353 38.9208 12.1483L39.526 12.4021ZM34.2891 9.98103C32.7032 9.90093 31.6953 10.7262 31.0999 11.5145C30.6401 11.8435 29.7074 12.3823 28.5562 12.3469C27.3696 12.3469 26.4306 11.7634 25.9994 11.4386C25.3963 10.6723 24.4024 9.90447 22.8658 9.98103C20.3799 10.0994 19.3539 12.0561 18.9985 13.3805C18.8691 12.8523 18.7843 12.3426 18.7522 11.8555L19.4486 11.6152C19.5041 11.5967 19.5438 11.5414 19.5445 11.4798L19.5598 10.3589C20.0356 10.1795 22.4151 9.32383 25.9987 8.87577C26.071 8.86584 26.1217 8.80488 26.1217 8.73256V8.34053H30.7966V8.73256C30.7966 8.80629 30.8516 8.86868 30.9233 8.87577C30.9629 8.88073 34.7843 9.29832 37.6842 10.4156V11.4649C37.6842 11.5244 37.7189 11.5769 37.7718 11.5996C37.7829 11.6024 37.9999 11.6932 38.4604 11.8512C38.4562 12.3907 38.3922 12.8651 38.2281 13.457C37.8734 12.1547 36.8405 10.1008 34.2891 9.98103ZM36.6422 11.4947C36.5052 11.73 35.7094 12.931 34.0304 12.6765C33.3194 12.568 32.8326 12.1675 32.5439 11.7761C32.2288 11.3535 32.3263 10.9749 32.4201 10.9176C32.8993 10.6198 33.5073 10.422 34.2662 10.4568C35.3289 10.5092 36.0955 10.9353 36.6422 11.4947ZM30.4976 12.909C30.5094 12.9132 31.6098 13.2947 32.4939 14.4021C32.5641 14.5056 32.3402 14.7076 32.1809 14.6651C31.8198 14.5686 31.0262 14.3935 30.5212 15.0663C30.5171 15.0727 30.5108 15.077 30.5073 15.0826C30.4579 15.1351 29.8458 15.7647 28.6209 15.7647C27.3758 15.7647 26.6977 15.106 26.6629 15.0706C25.952 14.417 25.2725 14.6084 24.8676 14.6665C24.6729 14.6956 24.4635 14.551 24.5748 14.3865C25.4644 13.2932 26.6378 12.9154 26.6504 12.9112C26.7624 12.8636 26.8215 12.7375 26.786 12.619C26.7804 12.6091 26.6713 12.5098 26.4097 12.0511C26.9397 12.3453 27.6784 12.6339 28.5506 12.6339C28.5917 12.6346 28.6279 12.6346 28.6689 12.6346C29.5008 12.6346 30.2096 12.3681 30.7229 12.0888C30.4767 12.5283 30.371 12.6091 30.3675 12.619C30.3334 12.7354 30.3897 12.8593 30.4976 12.909ZM24.7161 11.6896C24.428 12.1001 23.9328 12.561 23.1684 12.6772C21.451 12.936 20.6581 11.6747 20.5448 11.4798C21.0824 10.9268 21.8385 10.5078 22.8853 10.4582C23.6407 10.4234 24.2361 10.6276 24.7202 10.909C24.8893 11.0055 24.9532 11.3514 24.7161 11.6896ZM18.7467 7.70884C19.3783 7.47629 21.8683 6.58303 23.8417 6.24628C23.8563 6.25549 23.875 6.26683 23.8946 6.27959C25.3163 7.16579 26.8967 7.61314 28.5917 7.61314C30.2847 7.61314 31.8644 7.16579 33.2854 6.27959C33.3069 6.26683 33.325 6.25479 33.3397 6.24628C35.3136 6.58303 37.8253 7.47629 38.4604 7.70884C38.4604 7.7379 38.4597 7.76698 38.4597 7.79676V11.5464C38.2218 11.4642 38.057 11.4025 37.9666 11.3677V10.3164C37.9666 10.2568 37.9311 10.2029 37.8754 10.1809C35.2316 9.14234 31.7795 8.68863 31.0798 8.60355V8.19732C31.0798 8.1165 31.0172 8.05197 30.9386 8.05197H25.9799C25.9027 8.05197 25.8401 8.1165 25.8401 8.19732V8.60567C21.874 9.11611 19.3908 10.115 19.3651 10.1256C19.3122 10.1476 19.2774 10.1994 19.2753 10.2582L19.2614 11.3755L18.7467 11.5534V7.79605C18.7481 7.76627 18.7467 7.7379 18.7467 7.70884ZM18.1631 6.26826C18.0887 6.19169 17.9691 6.03925 18.0017 5.86698C18.0386 5.67982 18.2368 5.50187 18.5686 5.35866C23.1781 3.30837 27.5693 3.20487 28.4019 3.20487C28.5326 3.20487 28.6008 3.20629 28.6195 3.20629C28.6216 3.20629 28.6919 3.20487 28.8206 3.20487C29.6546 3.20487 34.0463 3.30838 38.6579 5.36008C38.9855 5.50188 39.1873 5.68053 39.2221 5.86698C39.2547 6.03925 39.1365 6.19169 39.0614 6.26826C39.0064 6.32497 38.955 6.37176 38.9083 6.4143C38.6621 6.64399 38.539 6.79926 38.4882 7.21116C37.6646 6.91481 35.2441 6.07401 33.3397 5.76136C33.3258 5.75994 33.3139 5.75993 33.3014 5.75993C33.2249 5.75993 33.1776 5.78686 33.0426 5.87194C31.6953 6.71205 30.1971 7.13672 28.5931 7.13672C26.9857 7.13672 25.4881 6.71205 24.1401 5.87194C23.9836 5.77339 23.9321 5.7486 23.8438 5.76136C21.9414 6.07401 19.5411 6.91198 18.7244 7.21116C18.675 6.79358 18.5512 6.6362 18.3078 6.40792C18.2646 6.36679 18.216 6.32214 18.1631 6.26826ZM18.346 16.3864C18.2605 16.2766 18.177 16.1489 18.0935 16.0022C17.6262 15.1819 17.4648 14.0568 17.3792 13.452C17.3598 13.3046 17.3402 13.1883 17.3263 13.1139C17.2366 12.6808 17.2874 12.5815 17.6887 12.3999C17.8974 12.3049 18.129 12.2086 18.3071 12.1341C18.3885 12.987 18.6075 13.8881 18.9561 14.8182C19.1049 15.2166 19.1223 15.6924 19.0694 16.2071C19.0082 16.7834 18.5332 16.6261 18.346 16.3864ZM39.6958 45.1124C38.9487 45.8767 32.811 47.3094 28.6112 47.3094C26.1607 47.3094 23.0495 46.8217 20.7346 46.2623H20.0293V46.083C18.7362 45.7384 17.7931 45.3818 17.5267 45.1124C17.2699 44.8501 17.1684 44.514 17.222 44.1121C17.2923 43.5719 17.6206 43.1217 17.72 43.0643C17.7228 43.0621 17.7249 43.0593 17.7284 43.0593C18.0574 43.2017 18.8544 43.5272 20.0299 43.881V43.5782C18.9254 43.2429 18.1679 42.9352 17.8508 42.797C17.8508 42.5751 17.8494 42.0653 17.8466 41.3309C17.8424 40.0477 17.8369 38.0917 17.8327 35.8741C18.2403 35.9619 19.1062 36.1527 20.0293 36.3292V36.2243L21.0782 36.1619C19.8012 35.94 18.3335 35.6897 17.8327 35.5785C17.8327 35.1907 17.8313 34.7972 17.8313 34.3959C18.1895 34.4937 20.6949 35.1587 24.2882 35.5153C24.6061 35.7656 24.9247 36.0151 25.1952 36.2243H25.5765C25.5765 36.2243 24.0754 35.058 23.1802 34.3428C23.1079 34.4463 23.1259 34.588 23.2227 34.6674C23.4007 34.8114 23.6246 34.99 23.8653 35.1821C20.2824 34.79 17.8946 34.1138 17.8627 34.1045C17.8521 34.1031 17.8431 34.1038 17.832 34.1031C17.832 33.1127 17.8292 32.089 17.8292 31.073C18.1283 30.8206 19.3601 30.6902 20.4995 30.6902C20.5725 30.6902 20.6345 30.7434 20.6769 30.6902C20.6142 30.5626 20.5559 30.4733 20.5009 30.34L20.4995 30.2123C19.1132 30.2123 18.5818 30.2875 17.6852 29.9018C16.8999 29.5644 16.3039 28.4889 16.3651 25.9353C16.395 24.7272 16.7441 23.2328 16.7441 23.2328C16.9924 22.1296 17.3605 20.8791 17.8828 19.4654C18.3189 18.3325 18.7078 17.7937 18.963 17.5363L19.3448 17.0961C19.5647 16.0801 19.6502 15.3364 19.3929 14.6481C19.3636 14.5659 19.3351 14.4829 19.3066 14.4014C19.3066 13.9462 19.5417 12.6474 20.3813 11.6612C20.5767 11.9683 21.3238 12.9522 22.724 12.9522C22.8784 12.9522 23.0383 12.9409 23.2038 12.9146C24.4628 12.7246 25.0366 11.7151 25.2252 11.2869C25.8185 11.83 26.1392 12.2404 26.2685 12.5659C25.8442 12.7799 24.8503 13.2273 24.0851 14.2447V14.246L24.0838 14.2468C24.0768 14.2546 23.9127 14.5162 24.0671 14.6991V14.7006V14.7019C24.1178 14.7962 24.5825 15.335 26.4084 15.4684C26.7102 15.7484 27.4789 16.2418 28.6223 16.2418C29.779 16.2418 30.5066 15.7477 30.7841 15.4684C32.6329 15.3287 32.9508 14.7452 33.0037 14.6693C33.1122 14.5162 33.0211 14.3134 32.9731 14.2468C32.2114 13.2345 31.2835 12.7871 30.885 12.5716C31.0144 12.2426 31.3434 11.8101 31.9617 11.2592C32.1398 11.6691 32.7074 12.7197 33.9942 12.9139C34.1632 12.9402 34.3231 12.9516 34.4748 12.9516C35.8555 12.9516 36.5998 11.9951 36.8105 11.6754C37.6807 12.6885 37.9171 14.0206 37.9171 14.4006L37.9199 14.4035C37.8914 14.4829 37.8629 14.5637 37.8302 14.6474C37.5298 15.4492 37.5548 16.3389 37.7746 17.0954L38.5175 17.9617C38.7504 18.2984 39.0218 18.8054 39.2756 19.5597C39.8696 21.1726 40.2605 22.5706 40.5145 23.7701C40.7057 24.6669 40.8149 26.0926 40.8149 26.0926C40.8963 28.2046 40.2863 29.5282 39.5023 29.8727C38.6683 30.24 37.9645 30.2244 37.029 30.2244C37.0185 30.2244 37.0116 30.228 37.0025 30.2287V30.3364H36.9781C36.9781 30.4683 36.8147 30.574 36.9441 30.574C37.7412 30.574 38.555 30.557 39.3487 31.0723C39.3487 32.1379 39.3501 33.1644 39.3515 34.1981C38.2121 34.5107 36.9524 34.7462 35.7351 34.9233C35.7943 35.0077 35.8521 35.0971 35.9104 35.1885C36.9455 35.029 37.9832 34.8227 38.9153 34.6079C39.2756 34.5242 39.3522 34.6887 39.3522 35.1105C39.3522 35.5302 39.2861 35.5819 38.964 35.6493C38.379 35.7741 37.3892 35.9818 36.4384 36.1527C36.478 36.2427 36.5205 36.3335 36.5566 36.4256C37.7113 36.215 38.9014 35.9598 39.3536 35.862C39.3584 38.0725 39.3661 40.0264 39.3688 41.3301C39.3688 42.0603 39.3709 42.5736 39.3709 42.7956C38.8868 43.0011 37.3996 43.5882 35.2149 44.0787C35.105 44.2092 34.9916 44.3347 34.8768 44.4481C37.3155 43.9341 38.9779 43.2769 39.4919 43.0564C39.4954 43.0593 39.4975 43.0614 39.5016 43.0643C39.6026 43.121 39.9295 43.5719 40.0017 44.1121C40.0553 44.5148 39.9524 44.8501 39.6958 45.1124ZM32.3672 16.7274C32.3263 16.7274 32.2886 16.7317 32.2574 16.738C31.0047 16.9975 28.7621 17.0046 28.5145 17.0046C28.2662 17.0046 26.0251 16.9975 24.7716 16.738C24.7376 16.7324 24.7007 16.7274 24.6611 16.7274C24.2987 16.7274 23.8153 17.0266 23.6345 17.5838C23.5259 17.9099 23.5975 18.2977 23.8257 18.6203C24.0316 18.911 24.3147 19.0825 24.5839 19.0825H28.5138H32.4424C32.7136 19.0825 32.994 18.9103 33.2005 18.6203C33.4287 18.2971 33.5004 17.9099 33.3946 17.5838C33.2123 17.0273 32.7289 16.7274 32.3672 16.7274ZM32.0348 17.2187C32.1405 17.2017 32.2428 17.1769 32.3401 17.1635C32.5057 17.14 32.7547 17.2294 32.843 17.437C32.8604 17.4803 32.8472 17.5825 32.6038 17.6363C32.4313 17.6739 32.1982 17.7064 31.9039 17.7427L32.0348 17.2187ZM26.3409 17.3634C27.3557 17.4336 28.5145 17.437 28.5145 17.437C28.5145 17.437 29.672 17.4336 30.6861 17.3634L30.8947 17.8334C30.1846 17.8873 29.3381 17.9149 28.5145 17.9149C27.6903 17.9149 26.8445 17.8873 26.1328 17.8334L26.3409 17.3634ZM24.186 17.437C24.275 17.2294 24.5219 17.14 24.6882 17.1635C24.7862 17.1769 24.8879 17.2017 24.9936 17.2187L25.1243 17.7427C24.8294 17.7064 24.5978 17.6739 24.4232 17.6363C24.1825 17.5817 24.1672 17.4803 24.186 17.437ZM24.5846 18.6508C24.4579 18.6508 24.291 18.5367 24.1728 18.3665C24.1004 18.2666 24.0546 18.1581 24.0302 18.0531C23.994 17.8943 24.1122 17.8461 24.3022 17.8787C24.5129 17.9149 24.8023 17.9688 25.1932 18.0134L25.3511 18.6508H24.5846ZM25.5069 18.224C25.4609 18.0446 25.269 17.2592 25.269 17.2592C25.5249 17.2917 25.7962 17.3201 26.0689 17.3427C26.0689 17.3427 25.7385 18.0942 25.6794 18.224C25.6133 18.3708 25.5549 18.4126 25.5069 18.224ZM28.5145 18.6508H25.7733L26.0216 18.0879L26.0244 18.0893C26.7638 18.1474 27.6507 18.1758 28.5145 18.1758C29.3784 18.1758 30.2632 18.1474 31.0047 18.0893V18.0879L31.2544 18.6508H28.5145ZM31.349 18.224C31.2905 18.0935 30.9587 17.3427 30.9587 17.3427C31.232 17.3201 31.5048 17.2917 31.76 17.2592C31.76 17.2592 31.568 18.0446 31.5235 18.224C31.4748 18.4126 31.4144 18.3708 31.349 18.224ZM32.8556 18.3665C32.7372 18.5367 32.5703 18.6508 32.4438 18.6508H31.678L31.8366 18.0134C32.226 17.9688 32.5175 17.9149 32.7254 17.8787C32.9154 17.8461 33.0357 17.8943 32.9982 18.0531C32.9744 18.1581 32.9286 18.2666 32.8556 18.3665Z" fill="#4A5F68"/>
</g>
<defs>
<clipPath id="clip0_145_313">
<rect width="238" height="61" fill="white" transform="translate(0 0.134277)"/>
</clipPath>
</defs>
</svg>
